<svg width="500" height="421" viewBox="0 0 500 421" fill="none" xmlns="http://www.w3.org/2000/svg">
<g clip-path="url(#clip0)">
<path d="M357.452 45.9182C314.745 45.722 276.363 64.3564 250 94.0437C223.637 64.3563 185.255 45.722 142.548 45.9182C62.3549 46.2867 -1.55744 112.305 0.0289032 193.047C1.56742 271.355 65.0855 334.359 143.216 334.359C146.248 334.359 149.256 334.265 152.241 334.077C217.35 329.997 282.65 329.997 347.759 334.077C350.743 334.264 353.751 334.358 356.784 334.359C434.914 334.359 498.433 271.355 499.971 193.047C501.557 112.305 437.645 46.2867 357.452 45.9182Z" fill="#F2F2F2"/>
<path d="M330.342 3.74741C328.2 3.8684 326.134 4.5837 324.376 5.81309C322.617 7.04248 321.236 8.73736 320.387 10.7077C317.898 16.7247 321.103 23.7925 325.914 28.1802C330.726 32.5678 336.906 35.0758 342.521 38.3723C350.064 42.8001 356.841 48.9466 360.615 56.8365C364.389 64.7265 364.791 74.4999 360.355 82.0374C356.237 89.0336 348.75 93.2208 341.61 97.0825" stroke="#3F3D56" stroke-miterlimit="10"/>
<path d="M336.683 8.5427C341.54 8.5427 345.477 6.63035 345.477 4.27135C345.477 1.91235 341.54 0 336.683 0C331.827 0 327.889 1.91235 327.889 4.27135C327.889 6.63035 331.827 8.5427 336.683 8.5427Z" fill="#57B894"/>
<path d="M343.718 36.6834C348.575 36.6834 352.512 34.771 352.512 32.412C352.512 30.053 348.575 28.1407 343.718 28.1407C338.862 28.1407 334.924 30.053 334.924 32.412C334.924 34.771 338.862 36.6834 343.718 36.6834Z" fill="#57B894"/>
<path d="M327.638 41.206C332.495 41.206 336.432 39.2936 336.432 36.9346C336.432 34.5756 332.495 32.6633 327.638 32.6633C322.781 32.6633 318.844 34.5756 318.844 36.9346C318.844 39.2936 322.781 41.206 327.638 41.206Z" fill="#57B894"/>
<path d="M352.764 64.824C357.62 64.824 361.558 62.9117 361.558 60.5527C361.558 58.1937 357.62 56.2813 352.764 56.2813C347.907 56.2813 343.97 58.1937 343.97 60.5527C343.97 62.9117 347.907 64.824 352.764 64.824Z" fill="#57B894"/>
<path d="M370.352 64.824C375.208 64.824 379.146 62.9117 379.146 60.5527C379.146 58.1937 375.208 56.2813 370.352 56.2813C365.495 56.2813 361.558 58.1937 361.558 60.5527C361.558 62.9117 365.495 64.824 370.352 64.824Z" fill="#57B894"/>
<path d="M376.814 143.843C374.841 142.999 372.673 142.722 370.551 143.042C368.43 143.362 366.439 144.266 364.803 145.654C359.9 149.938 359.63 157.694 361.99 163.763C364.35 169.831 368.772 174.825 372.338 180.273C377.127 187.592 380.467 196.11 380.342 204.855C380.216 213.6 376.233 222.534 368.909 227.315C362.111 231.752 353.544 232.176 345.431 232.463" stroke="#3F3D56" stroke-miterlimit="10"/>
<path d="M390.14 151.038C391.188 148.925 388.511 145.462 384.16 143.304C379.809 141.145 375.433 141.109 374.384 143.222C373.336 145.335 376.013 148.798 380.364 150.957C384.715 153.115 389.092 153.151 390.14 151.038Z" fill="#57B894"/>
<path d="M383.937 179.374C384.985 177.26 382.308 173.798 377.957 171.639C373.606 169.481 369.229 169.445 368.181 171.558C367.133 173.671 369.81 177.134 374.161 179.292C378.512 181.45 382.888 181.487 383.937 179.374Z" fill="#57B894"/>
<path d="M367.522 176.279C368.57 174.166 365.893 170.703 361.542 168.545C357.191 166.386 352.814 166.35 351.766 168.463C350.718 170.577 353.395 174.039 357.746 176.198C362.096 178.356 366.473 178.392 367.522 176.279Z" fill="#57B894"/>
<path d="M379.534 208.603C380.583 206.489 377.905 203.027 373.554 200.868C369.204 198.71 364.827 198.673 363.778 200.787C362.73 202.9 365.407 206.363 369.758 208.521C374.109 210.679 378.486 210.716 379.534 208.603Z" fill="#57B894"/>
<path d="M395.29 216.419C396.338 214.305 393.661 210.843 389.31 208.684C384.959 206.526 380.583 206.489 379.534 208.603C378.486 210.716 381.163 214.179 385.514 216.337C389.865 218.495 394.242 218.532 395.29 216.419Z" fill="#57B894"/>
<path d="M149.75 184.125C151.272 182.612 153.185 181.554 155.275 181.068C157.364 180.581 159.548 180.687 161.581 181.372C167.72 183.542 170.836 190.65 170.884 197.161C170.932 203.673 168.667 209.946 167.366 216.326C165.618 224.896 165.66 234.046 169.007 242.126C172.353 250.207 179.355 257.037 187.927 258.775C195.883 260.388 204.001 257.618 211.646 254.888" stroke="#3F3D56" stroke-miterlimit="10"/>
<path d="M149.079 192.047C152.325 188.434 153.534 184.227 151.779 182.651C150.025 181.074 145.971 182.725 142.725 186.337C139.479 189.95 138.27 194.157 140.024 195.733C141.779 197.31 145.833 195.659 149.079 192.047Z" fill="#57B894"/>
<path d="M165.309 216.088C168.555 212.475 169.764 208.268 168.01 206.692C166.255 205.115 162.201 206.766 158.955 210.378C155.709 213.991 154.5 218.198 156.255 219.774C158.009 221.351 162.063 219.701 165.309 216.088Z" fill="#57B894"/>
<path d="M179.421 207.149C182.667 203.537 183.876 199.33 182.121 197.753C180.366 196.177 176.312 197.827 173.066 201.44C169.82 205.052 168.611 209.259 170.366 210.836C172.121 212.413 176.175 210.762 179.421 207.149Z" fill="#57B894"/>
<path d="M180.196 241.624C183.442 238.011 184.651 233.805 182.896 232.228C181.142 230.651 177.088 232.302 173.842 235.915C170.596 239.527 169.387 243.734 171.141 245.311C172.896 246.887 176.95 245.237 180.196 241.624Z" fill="#57B894"/>
<path d="M168.441 254.707C171.687 251.094 172.896 246.887 171.141 245.311C169.387 243.734 165.333 245.384 162.087 248.997C158.841 252.61 157.632 256.817 159.386 258.393C161.141 259.97 165.195 258.319 168.441 254.707Z" fill="#57B894"/>
<path d="M352 126.11L350.618 136.246L342.075 198.789L328.085 301.211L324.583 326.854C324.316 328.811 323.349 330.606 321.86 331.905C320.372 333.204 318.463 333.92 316.487 333.919H223.196C221.224 333.92 219.317 333.207 217.83 331.912C216.342 330.617 215.372 328.828 215.101 326.874L211.538 301.211L197.312 198.789L188.618 136.201L187.221 126.13C187.06 124.974 187.149 123.796 187.481 122.676C187.814 121.556 188.383 120.521 189.15 119.64C189.916 118.759 190.863 118.053 191.926 117.568C192.989 117.084 194.144 116.834 195.312 116.834H343.904C345.071 116.835 346.223 117.085 347.285 117.567C348.346 118.05 349.292 118.755 350.059 119.633C350.826 120.512 351.396 121.545 351.731 122.662C352.065 123.779 352.157 124.955 352 126.11Z" fill="#F9A826"/>
<path d="M334.543 89.6984H205.156C200.643 89.6984 196.985 93.3566 196.985 97.8692V108.663C196.985 113.176 200.643 116.834 205.156 116.834H334.543C339.055 116.834 342.713 113.176 342.713 108.663V97.8692C342.713 93.3566 339.055 89.6984 334.543 89.6984Z" fill="#2F2E41"/>
<path opacity="0.1" d="M342.713 102.522V108.663C342.713 110.83 341.852 112.908 340.32 114.441C338.788 115.973 336.71 116.834 334.543 116.834H205.156C202.989 116.834 200.911 115.973 199.378 114.441C197.846 112.908 196.985 110.83 196.985 108.663V102.538C245.452 107.156 294.248 107.151 342.713 102.522Z" fill="black"/>
<path d="M230.905 194.472C243.116 194.472 253.015 184.573 253.015 172.362C253.015 160.15 243.116 150.251 230.905 150.251C218.693 150.251 208.794 160.15 208.794 172.362C208.794 184.573 218.693 194.472 230.905 194.472Z" fill="#2F2E41"/>
<path d="M309.296 194.472C321.508 194.472 331.407 184.573 331.407 172.362C331.407 160.15 321.508 150.251 309.296 150.251C297.085 150.251 287.186 160.15 287.186 172.362C287.186 184.573 297.085 194.472 309.296 194.472Z" fill="#2F2E41"/>
<path d="M229.9 178.392C233.23 178.392 235.93 175.692 235.93 172.362C235.93 169.031 233.23 166.331 229.9 166.331C226.569 166.331 223.869 169.031 223.869 172.362C223.869 175.692 226.569 178.392 229.9 178.392Z" fill="white"/>
<path d="M238.945 163.316C240.332 163.316 241.457 162.191 241.457 160.804C241.457 159.416 240.332 158.291 238.945 158.291C237.557 158.291 236.432 159.416 236.432 160.804C236.432 162.191 237.557 163.316 238.945 163.316Z" fill="white"/>
<path d="M309.296 178.392C312.627 178.392 315.327 175.692 315.327 172.362C315.327 169.031 312.627 166.331 309.296 166.331C305.966 166.331 303.266 169.031 303.266 172.362C303.266 175.692 305.966 178.392 309.296 178.392Z" fill="white"/>
<path d="M318.342 163.316C319.729 163.316 320.854 162.191 320.854 160.804C320.854 159.416 319.729 158.291 318.342 158.291C316.954 158.291 315.829 159.416 315.829 160.804C315.829 162.191 316.954 163.316 318.342 163.316Z" fill="white"/>
<path opacity="0.1" d="M351.535 122.11H351.536C351.534 122.104 351.531 122.098 351.529 122.092C351.313 121.53 351.037 120.993 350.704 120.491L350.703 120.49C350.604 120.342 350.5 120.199 350.392 120.057C350.357 120.01 350.319 119.964 350.283 119.918C349.969 119.525 349.621 119.161 349.241 118.832C349.156 118.758 349.071 118.685 348.983 118.615C348.885 118.537 348.786 118.459 348.683 118.385C348.555 118.292 348.424 118.205 348.29 118.12C348.185 118.052 348.079 117.986 347.971 117.924C347.803 117.827 347.632 117.736 347.458 117.65C347.374 117.61 347.29 117.572 347.205 117.535C347.038 117.46 346.868 117.392 346.695 117.329C346.625 117.304 346.557 117.276 346.486 117.253C346.247 117.173 346.002 117.104 345.753 117.046C345.692 117.032 345.63 117.022 345.568 117.009C345.364 116.967 345.157 116.933 344.948 116.906C344.872 116.896 344.797 116.886 344.72 116.879C344.452 116.852 344.181 116.834 343.905 116.834L343.904 116.834H195.312C194.145 116.838 192.993 117.091 191.932 117.576C190.871 118.061 189.926 118.767 189.16 119.647C188.394 120.527 187.824 121.561 187.49 122.678C187.156 123.796 187.064 124.972 187.221 126.128L187.457 127.827L188.618 136.201L188.62 136.201L197.312 198.789H197.312L208.723 280.944L215.102 326.873C215.373 328.826 216.342 330.616 217.829 331.911C219.317 333.206 221.222 333.919 223.194 333.919H227.622C227.403 333.348 227.248 332.754 227.162 332.149L222.865 301.211H328.085L342.075 198.789H208.64L200.086 137.203C250.196 141.266 300.564 140.946 350.618 136.246L352 126.11C352.184 124.759 352.024 123.383 351.535 122.11Z" fill="black"/>
<path d="M363.689 130.402C301.314 137.21 238.384 137.21 176.01 130.402C173.843 130.402 171.765 129.541 170.232 128.009C168.7 126.477 167.839 124.398 167.839 122.231V111.437C167.839 109.27 168.7 107.191 170.232 105.659C171.765 104.127 173.843 103.266 176.01 103.266C238.335 110.929 301.364 110.929 363.689 103.266C365.856 103.266 367.934 104.127 369.466 105.659C370.998 107.191 371.859 109.27 371.859 111.437V122.231C371.859 124.398 370.998 126.477 369.466 128.009C367.934 129.541 365.856 130.402 363.689 130.402Z" fill="#2F2E41"/>
<path d="M331.927 297.487H206.306C205.178 297.487 204.088 297.085 203.23 296.352C202.372 295.62 201.804 294.606 201.627 293.492L188.056 207.992C187.949 207.316 187.989 206.624 188.175 205.965C188.361 205.306 188.687 204.695 189.132 204.174C189.577 203.653 190.129 203.234 190.751 202.948C191.373 202.661 192.05 202.512 192.735 202.512H346.403C347.092 202.512 347.773 202.663 348.398 202.953C349.023 203.243 349.577 203.666 350.022 204.192C350.466 204.719 350.791 205.336 350.973 206C351.154 206.665 351.189 207.361 351.074 208.041L336.598 293.54C336.411 294.644 335.839 295.646 334.984 296.368C334.129 297.091 333.046 297.487 331.927 297.487Z" fill="#2F2E41"/>
<path d="M317.633 236.543C318.225 236.651 318.777 236.917 319.231 237.313C319.685 237.708 320.023 238.219 320.211 238.791C320.399 239.363 320.429 239.975 320.298 240.563C320.168 241.151 319.881 241.692 319.468 242.131C311.498 250.627 292.173 268.341 269.598 268.341C247.023 268.341 227.698 250.627 219.728 242.131C219.315 241.692 219.028 241.151 218.897 240.563C218.767 239.975 218.797 239.363 218.985 238.791C219.173 238.219 219.511 237.708 219.965 237.313C220.419 236.917 220.971 236.651 221.563 236.543C253.32 230.7 285.876 230.7 317.632 236.543H317.633Z" fill="#F9A826"/>
<path d="M294.723 241.841C295.335 241.938 295.907 242.204 296.377 242.608C296.847 243.012 297.196 243.538 297.385 244.128C297.573 244.718 297.594 245.349 297.446 245.951C297.297 246.552 296.984 247.101 296.542 247.535C291.145 252.798 281.099 260.733 269.598 260.733C258.097 260.733 248.051 252.798 242.654 247.535C242.212 247.101 241.899 246.552 241.75 245.951C241.602 245.349 241.623 244.718 241.811 244.128C242 243.538 242.349 243.012 242.819 242.608C243.289 242.204 243.861 241.938 244.473 241.841C261.109 239.078 278.087 239.078 294.723 241.841Z" fill="white"/>
<path d="M63.5681 334.17H410.804" stroke="#3F3D56" stroke-miterlimit="10"/>
<path d="M92.2876 287.66V301.796L99.5466 310.201C99.5466 310.201 102.603 309.055 102.603 301.414L103.749 290.335L92.2876 287.66Z" fill="#A0616A"/>
<path d="M99.5466 301.796C99.5466 301.796 87.7029 293.773 87.3209 291.099C86.9388 288.424 70.1285 276.199 72.8028 283.84C75.4772 291.481 83.8824 294.919 83.8824 294.919C83.8824 294.919 90.3773 312.494 96.1081 312.112C101.839 311.73 101.839 304.471 99.5466 301.796Z" fill="#A0616A"/>
<path d="M106.423 387.758L107.57 394.635L101.457 393.107V387.758H106.423Z" fill="#3F3D56"/>
<path d="M105.277 391.579C105.277 391.579 98.2123 387.393 97.9243 389.295C97.6364 391.197 94.5799 398.456 93.0517 399.22C91.5235 399.984 89.6132 408.389 93.0517 408.007C95.7148 407.711 105.483 402.603 109.752 400.314C110.278 400.03 110.675 399.556 110.861 398.989C111.048 398.422 111.01 397.805 110.755 397.265C110.505 396.802 110.332 396.301 110.244 395.781C110.244 395.017 105.277 391.579 105.277 391.579Z" fill="#2F2E41"/>
<path d="M108.716 314.022C108.716 314.022 80.826 327.012 83.5003 336.945C86.1747 346.879 96.1081 388.905 96.1081 388.905C96.1081 388.905 107.188 391.579 107.952 388.905C108.716 386.23 100.693 344.586 101.457 343.058C102.221 341.53 116.357 331.596 116.357 331.596L145.393 319.371L133.167 307.909L108.716 314.022Z" fill="#2F2E41"/>
<path d="M87.7029 390.051L84.2642 398.838L90.3773 401.512L94.1979 394.635L87.7029 390.051Z" fill="#3F3D56"/>
<path d="M108.334 251.365C108.334 251.365 111.772 255.95 109.098 258.242C106.424 260.534 108.334 268.94 108.334 268.94L111.772 278.491L125.526 275.817V260.152L124.762 252.511C124.762 252.511 117.885 246.016 117.121 241.05C116.357 236.083 108.334 251.365 108.334 251.365Z" fill="#A0616A"/>
<path opacity="0.1" d="M108.334 251.365C108.334 251.365 111.772 255.95 109.098 258.242C106.424 260.534 108.334 268.94 108.334 268.94L111.772 278.491L125.526 275.817V260.152L124.762 252.511C124.762 252.511 117.885 246.016 117.121 241.05C116.357 236.083 108.334 251.365 108.334 251.365Z" fill="black"/>
<path d="M131.257 310.966C131.257 310.966 113.301 330.832 113.301 331.596C113.301 332.361 103.749 348.025 103.749 348.025L85.0286 389.669C85.0286 389.669 92.2876 399.602 95.344 398.838C98.4004 398.074 120.178 353.756 120.178 353.756C120.178 353.756 123.998 343.822 134.314 341.53C144.629 339.238 152.652 331.214 148.832 322.045C145.011 312.876 131.257 310.966 131.257 310.966Z" fill="#2F2E41"/>
<path d="M108.334 254.039C115.086 254.039 120.56 248.566 120.56 241.814C120.56 235.062 115.086 229.588 108.334 229.588C101.582 229.588 96.1082 235.062 96.1082 241.814C96.1082 248.566 101.582 254.039 108.334 254.039Z" fill="#A0616A"/>
<path d="M108.716 261.681C108.716 261.681 110.244 270.468 111.772 271.232C113.301 271.996 114.447 274.67 117.885 270.85C121.324 267.029 124.38 259.388 124.38 259.388L136.224 273.906L137.37 314.022C137.37 314.022 123.998 310.583 119.795 314.022C115.593 317.46 106.424 317.078 106.424 317.078L108.334 309.437L106.806 296.447L107.188 284.604L107.57 276.199L108.716 261.681Z" fill="#F2F2F2"/>
<path d="M110.062 255.25C110.062 255.25 104.895 257.86 104.513 259.388C104.131 260.916 97.2543 263.973 97.2543 263.973C97.2543 263.973 94.5799 266.647 94.5799 268.175C94.5799 269.704 103.749 287.278 103.749 287.278C103.749 287.278 105.659 299.122 104.895 301.414C104.131 303.707 106.424 312.494 106.424 312.494L101.839 317.842H106.042C106.042 317.842 110.626 315.55 110.626 314.404C110.626 313.258 109.862 305.235 109.48 301.796C109.098 298.358 109.098 286.132 109.862 281.929C110.626 277.727 110.244 266.647 110.244 263.973C110.244 261.298 110.062 255.25 110.062 255.25Z" fill="#3F3D56"/>
<path d="M121.897 249.449C121.897 249.449 123.616 249.837 128.583 251.365C133.549 252.893 141.19 255.186 143.865 258.242C145.742 260.502 147.405 262.933 148.832 265.501L147.303 293.009C147.303 293.009 150.36 298.74 149.978 301.796C149.596 304.853 146.539 305.235 148.832 311.73C151.124 318.225 155.709 323.955 151.506 324.719C147.303 325.484 136.224 322.809 131.257 324.337C126.29 325.866 120.56 318.607 120.56 318.607C120.56 318.607 128.201 319.371 127.054 316.314C125.908 313.258 113.301 278.873 115.975 271.232C118.649 263.591 121.897 249.449 121.897 249.449Z" fill="#3F3D56"/>
<path d="M96.4902 266.265L94.5799 267.793C94.5799 267.793 89.2311 286.896 90.7593 288.806C92.2875 290.717 104.513 294.919 105.277 292.245C106.042 289.571 96.4902 266.265 96.4902 266.265Z" fill="#3F3D56"/>
<path d="M153.034 279.637C153.034 279.637 158.765 296.065 158.765 300.65C158.765 305.235 158.001 331.978 158.001 331.978C158.001 331.978 157.619 343.44 149.596 338.855C141.573 334.271 149.596 331.214 149.596 331.214C149.596 331.214 149.214 301.032 146.157 296.829C143.101 292.627 141.955 286.514 141.955 286.514L153.034 279.637Z" fill="#A0616A"/>
<path d="M90.3773 398.456C90.3773 398.456 84.6465 395.399 83.5004 397.692C82.3542 399.984 76.2413 412.592 77.0054 414.12C77.7696 415.648 81.9721 421.761 86.9388 420.233C91.9055 418.705 92.2876 410.682 92.2876 410.682L92.6696 401.512L90.3773 398.456Z" fill="#2F2E41"/>
<path d="M105.94 238.861C106.782 239.257 107.781 239.494 108.31 240.26C108.702 240.827 108.741 241.564 109.027 242.192C109.34 242.813 109.877 243.292 110.53 243.531C111.184 243.77 111.903 243.751 112.543 243.477C112.699 242.716 113.141 242.044 113.779 241.6C114.101 241.388 114.482 241.285 114.867 241.307C115.252 241.328 115.62 241.472 115.916 241.717C116.704 242.468 116.425 243.777 116.793 244.801C117.138 245.522 117.612 246.173 118.193 246.721C119.029 247.686 119.695 248.818 120.702 249.603C121.709 250.387 123.236 250.728 124.237 249.934C125.078 249.267 125.252 248.037 125.048 246.983C124.844 245.929 124.337 244.958 124.051 243.923C123.123 240.561 124.603 236.97 124.145 233.512C123.558 229.081 119.792 225.581 115.588 224.061C113.839 223.349 111.923 223.146 110.063 223.476C108.141 223.905 106.498 225.129 104.657 225.829C102.688 226.578 100.547 226.709 98.4861 227.146C96.4254 227.584 94.3048 228.43 93.1091 230.165C92.275 231.374 91.9883 232.876 91.2971 234.173C90.5015 235.653 89.2127 236.808 87.6545 237.436L89.8328 237.312C89.4677 238.285 88.8721 239.154 88.0972 239.845C89.1187 240.054 90.1805 239.913 91.1128 239.447C91.0959 239.895 90.9874 240.334 90.7941 240.738C90.6007 241.142 90.3265 241.503 89.9885 241.797C91.6647 241.746 93.4323 241.669 94.8486 240.771C95.5424 240.331 96.1081 239.719 96.761 239.22C98.1525 238.158 99.879 237.653 101.562 237.17C102.446 236.917 103.509 236.564 104.309 237.132C104.974 237.606 105.079 238.455 105.94 238.861Z" fill="#2F2E41"/>
<path d="M143.101 260.916L148.832 265.501L156.473 283.076C156.473 283.076 145.775 291.481 143.101 290.335C140.426 289.188 135.842 268.94 135.842 268.94L143.101 260.916Z" fill="#3F3D56"/>
<path d="M86.1359 278.666L86.0401 279.368L85.4482 283.702L84.4789 290.798L84.2362 292.575C84.2177 292.711 84.1507 292.835 84.0476 292.925C83.9445 293.015 83.8122 293.065 83.6753 293.065H77.2114C77.0747 293.065 76.9427 293.015 76.8396 292.925C76.7365 292.836 76.6693 292.712 76.6505 292.576L76.4036 290.798L75.4179 283.702L74.8156 279.365L74.7188 278.667C74.7076 278.587 74.7138 278.506 74.7368 278.428C74.7599 278.35 74.7993 278.279 74.8524 278.218C74.9055 278.157 74.9711 278.108 75.0448 278.074C75.1184 278.041 75.1984 278.023 75.2794 278.023H85.575C85.6558 278.023 85.7357 278.041 85.8092 278.074C85.8828 278.108 85.9483 278.156 86.0014 278.217C86.0546 278.278 86.0941 278.35 86.1172 278.427C86.1404 278.504 86.1468 278.586 86.1359 278.666Z" fill="#F9A826"/>
<path d="M84.9264 276.143H75.9615C75.6488 276.143 75.3954 276.397 75.3954 276.709V277.457C75.3954 277.77 75.6488 278.023 75.9615 278.023H84.9264C85.239 278.023 85.4925 277.77 85.4925 277.457V276.709C85.4925 276.397 85.239 276.143 84.9264 276.143Z" fill="#2F2E41"/>
<path d="M86.9458 278.963C82.624 279.435 78.2638 279.435 73.942 278.963C73.8677 278.963 73.7941 278.949 73.7254 278.92C73.6567 278.892 73.5943 278.85 73.5417 278.798C73.4892 278.745 73.4475 278.683 73.419 278.614C73.3906 278.545 73.3759 278.472 73.3759 278.397V277.649C73.3759 277.499 73.4356 277.355 73.5417 277.249C73.6479 277.143 73.7919 277.083 73.942 277.083C78.2604 277.614 82.6275 277.614 86.9458 277.083C87.0959 277.083 87.2399 277.143 87.3461 277.249C87.4523 277.355 87.5119 277.499 87.5119 277.649V278.397C87.5119 278.547 87.4523 278.691 87.3461 278.798C87.2399 278.904 87.0959 278.963 86.9458 278.963Z" fill="#2F2E41"/>
<path d="M84.7451 290.54H76.0412C75.9631 290.54 75.8875 290.512 75.828 290.462C75.7686 290.411 75.7292 290.341 75.717 290.263L74.7767 284.339C74.7692 284.292 74.772 284.245 74.7849 284.199C74.7978 284.153 74.8204 284.111 74.8512 284.075C74.882 284.039 74.9203 284.01 74.9634 283.99C75.0065 283.97 75.0534 283.96 75.1009 283.96H85.7481C85.7958 283.96 85.843 283.97 85.8863 283.99C85.9296 284.01 85.968 284.04 85.9988 284.076C86.0296 284.113 86.0521 284.155 86.0647 284.201C86.0773 284.247 86.0797 284.296 86.0717 284.343L85.0687 290.267C85.0558 290.343 85.0162 290.413 84.9569 290.463C84.8977 290.513 84.8227 290.54 84.7451 290.54Z" fill="#2F2E41"/>
</g>
<defs>
<clipPath id="clip0">
<rect width="500" height="420.476" fill="white"/>
</clipPath>
</defs>
</svg>
