<svg width="400" height="219" viewBox="0 0 400 219" fill="none" xmlns="http://www.w3.org/2000/svg">
<g clip-path="url(#clip0)">
<path d="M400 22.6757H127.924V199.443H400V22.6757Z" fill="#3F3D56"/>
<path d="M140.456 21.6863H119.679V200.102H140.456V21.6863Z" fill="#D0CDE1"/>
<path d="M234.775 70.825H180.36V71.4845H234.775V70.825Z" fill="#D0CDE1"/>
<path d="M358.776 166.464H283.914V96.5485H358.776V166.464ZM284.574 165.804H358.117V97.2081H284.574V165.804Z" fill="#D0CDE1"/>
<path d="M284.469 96.6371L284.019 97.1194L358.221 166.375L358.672 165.893L284.469 96.6371Z" fill="#D0CDE1"/>
<path d="M358.223 96.6389L284.017 165.891L284.467 166.374L358.673 97.1213L358.223 96.6389Z" fill="#D0CDE1"/>
<path d="M257.201 119.304H180.36V119.964H257.201V119.304Z" fill="#D0CDE1"/>
<path d="M257.201 131.177H180.36V131.836H257.201V131.177Z" fill="#D0CDE1"/>
<path d="M257.201 143.049H180.36V143.708H257.201V143.049Z" fill="#D0CDE1"/>
<path d="M244.365 13.9357C248.213 13.9357 251.333 10.8161 251.333 6.96786C251.333 3.11962 248.213 0 244.365 0C240.516 0 237.397 3.11962 237.397 6.96786C237.397 10.8161 240.516 13.9357 244.365 13.9357Z" fill="#3F3D56"/>
<path d="M263.962 13.9357C267.81 13.9357 270.93 10.8161 270.93 6.96786C270.93 3.11962 267.81 0 263.962 0C260.114 0 256.994 3.11962 256.994 6.96786C256.994 10.8161 260.114 13.9357 263.962 13.9357Z" fill="#F9A826"/>
<path d="M283.559 13.9357C287.407 13.9357 290.527 10.8161 290.527 6.96786C290.527 3.11962 287.407 0 283.559 0C279.711 0 276.591 3.11962 276.591 6.96786C276.591 10.8161 279.711 13.9357 283.559 13.9357Z" fill="#D0CDE1"/>
<path d="M234.38 217.616H0V218.447H234.38V217.616Z" fill="#3F3D56"/>
<path d="M69.1745 81.1216C71.7067 81.1216 73.7595 79.0688 73.7595 76.5366C73.7595 74.0043 71.7067 71.9515 69.1745 71.9515C66.6422 71.9515 64.5894 74.0043 64.5894 76.5366C64.5894 79.0688 66.6422 81.1216 69.1745 81.1216Z" fill="#2F2E41"/>
<path d="M78.8563 75.8573C86.1229 75.8573 92.0135 69.3948 92.0135 61.4229C92.0135 53.4511 86.1229 46.9886 78.8563 46.9886C71.5898 46.9886 65.6992 53.4511 65.6992 61.4229C65.6992 69.3948 71.5898 75.8573 78.8563 75.8573Z" fill="#2F2E41"/>
<path d="M69.599 123.491L69.2593 125.189C69.2593 125.189 68.2404 126.208 68.7499 126.717C69.2593 127.227 69.0895 129.604 69.0895 129.604L68.0706 136.227L62.1271 163.058C62.1271 163.058 54.3155 168.152 48.2022 178.171C42.0888 188.19 41.919 190.738 41.919 190.738L48.7116 193.625L65.6932 173.077C65.6932 173.077 70.448 170.19 72.1462 167.643C73.8444 165.095 84.3729 138.774 84.3729 138.774L90.3165 166.284C90.3165 166.284 89.9769 176.303 91.5052 182.756C92.4449 186.829 93.0133 190.978 93.2033 195.153L101.185 194.304C101.185 194.304 100.675 170.19 99.8262 167.643C99.8262 167.643 103.392 138.265 96.26 126.547L92.0146 109.396L84.8824 109.056L69.599 123.491Z" fill="#2F2E41"/>
<path d="M50.0702 192.945L41.5794 187.681L37.6736 195.153C37.6736 195.153 29.013 200.417 30.881 204.323C32.7489 208.229 34.4471 209.248 34.4471 209.248L35.6358 208.738L37.8434 212.814C37.8434 212.814 43.6172 221.135 52.957 216.889C53.3953 216.3 53.6321 215.586 53.6321 214.851C53.6321 214.117 53.3953 213.403 52.957 212.814C51.4287 210.606 47.5229 205.851 47.5229 205.851L50.0702 192.945Z" fill="#2F2E41"/>
<path d="M102.034 193.115L92.6939 193.794L93.7128 201.436C93.7128 201.436 89.2976 212.304 92.3543 213.153C94.529 213.715 96.7428 214.113 98.9771 214.342L99.3167 213.153C99.3167 213.153 112.393 220.286 117.147 215.021C117.147 215.021 118.166 211.285 115.279 210.097C112.393 208.908 106.789 206.361 106.109 205.002C105.43 203.644 102.034 193.115 102.034 193.115Z" fill="#2F2E41"/>
<path d="M79.2785 71.8666C83.7802 71.8666 87.4296 68.2172 87.4296 63.7154C87.4296 59.2137 83.7802 55.5643 79.2785 55.5643C74.7767 55.5643 71.1273 59.2137 71.1273 63.7154C71.1273 68.2172 74.7767 71.8666 79.2785 71.8666Z" fill="#FFB8B8"/>
<path d="M73.1651 68.6401C73.1651 68.6401 74.184 75.263 69.0895 77.8102C63.9951 80.3574 82.505 83.4141 82.505 83.4141C82.505 83.4141 79.6181 78.9989 80.1276 77.4706C80.637 75.9422 83.1843 69.8289 83.1843 69.8289L73.1651 68.6401Z" fill="#FFB8B8"/>
<path d="M71.8066 77.98C71.8066 77.98 66.8819 75.0931 65.1838 76.4516C63.4856 77.8102 62.9762 119.415 69.0895 121.113L69.2593 123.321C69.2593 123.321 67.0517 124.34 69.0895 124.34C71.1273 124.34 80.637 117.377 80.9767 114.83C81.3163 112.283 91.1656 111.773 91.1656 111.773C91.1656 111.773 93.7128 122.642 94.5619 122.302C95.411 121.962 95.411 114.66 95.0714 113.641C94.7317 112.622 98.9771 109.396 97.7884 107.358C96.5997 105.32 93.3732 98.3579 93.3732 98.3579C93.3732 98.3579 93.7128 93.9427 89.1278 89.8671C89.1278 89.8671 87.7879 82.2816 81.7501 82.1686C75.7124 82.0556 71.8066 77.98 71.8066 77.98Z" fill="#575A89"/>
<path d="M71.1629 53.7959V63.113H73.3204L76.0663 60.1708L75.6987 63.113H85.2363L84.6479 60.1708L85.8246 63.113H87.3446V53.7959H71.1629Z" fill="#2F2E41"/>
<path d="M91.1159 137.28H20.7545V201.538H91.1159V137.28Z" fill="#F9A826"/>
<path d="M62.4179 170.74C56.4863 180.424 58.527 192.469 58.527 192.469C58.527 192.469 70.1848 188.814 76.1164 179.13C82.048 169.447 80.0072 157.401 80.0072 157.401C80.0072 157.401 68.3494 161.056 62.4179 170.74Z" fill="#3F3D56"/>
<path d="M58.2849 192.549L57.9477 192.496C57.8257 192.476 45.6865 190.465 38.4164 181.767C31.1463 173.068 31.3212 160.765 31.3236 160.641L31.3308 160.3L31.6681 160.353C31.79 160.373 43.9293 162.384 51.1994 171.083C58.4695 179.781 58.2946 192.085 58.2922 192.208L58.2849 192.549Z" fill="#D0CDE1"/>
<path d="M58.8971 161.091C62.5167 161.091 65.451 158.156 65.451 154.537C65.451 150.917 62.5167 147.983 58.8971 147.983C55.2775 147.983 52.3432 150.917 52.3432 154.537C52.3432 158.156 55.2775 161.091 58.8971 161.091Z" fill="#3F3D56"/>
<path d="M59.0704 119.415L61.1082 134.529C61.1082 134.529 59.9195 147.774 64.5045 147.944C69.0895 148.114 66.2027 134.359 66.2027 134.359L65.6932 120.604C65.6932 120.604 61.9573 114.49 59.0704 119.415Z" fill="#FFB8B8"/>
<path d="M66.7121 77.4705C66.7121 77.4705 65.5234 74.244 62.9762 76.7912C60.4289 79.3385 58.2213 85.9613 58.2213 90.0369C58.2213 94.1124 58.7308 117.717 58.7308 117.717C58.7308 117.717 56.0137 118.736 57.8817 120.264C59.7497 121.792 62.2969 119.415 62.2969 119.415C62.2969 119.415 65.6932 121.792 66.0329 121.792C66.3725 121.792 66.2027 118.906 66.2027 118.906C66.2027 118.906 67.9008 114.49 67.5612 111.094C67.2216 107.698 66.7121 77.4705 66.7121 77.4705Z" fill="#575A89"/>
<path d="M358.776 61.5908H180.03V49.3886H358.776V61.5908ZM180.69 60.9313H358.117V50.0482H180.69V60.9313Z" fill="#D0CDE1"/>
<path d="M39.4219 154.87H21.8315C23.1894 149.406 23.0256 143.494 21.8315 137.28H39.4219C36.9595 143.143 36.9595 149.007 39.4219 154.87Z" fill="#D0CDE1"/>
<path d="M35.1575 141.011H24.4967V143.143H35.1575V141.011Z" fill="#3F3D56"/>
<path d="M35.1575 145.276H24.4967V147.408H35.1575V145.276Z" fill="#3F3D56"/>
<path d="M35.1575 149.54H24.4967V151.672H35.1575V149.54Z" fill="#3F3D56"/>
<path d="M197.735 85.9448H180.144C181.502 80.4802 181.339 74.5686 180.144 68.3545H197.735C195.272 74.2179 195.272 80.0814 197.735 85.9448Z" fill="#D0CDE1"/>
<path d="M193.47 72.0858H182.81V74.218H193.47V72.0858Z" fill="#3F3D56"/>
<path d="M193.47 76.3501H182.81V78.4823H193.47V76.3501Z" fill="#3F3D56"/>
<path d="M193.47 80.6144H182.81V82.7466H193.47V80.6144Z" fill="#3F3D56"/>
<path d="M330.201 112.51H312.61C313.968 107.045 313.804 101.134 312.61 94.9195H330.201C327.738 100.783 327.738 106.646 330.201 112.51Z" fill="#D0CDE1"/>
<path d="M325.936 98.6508H315.276V100.783H325.936V98.6508Z" fill="#3F3D56"/>
<path d="M325.936 102.915H315.276V105.047H325.936V102.915Z" fill="#3F3D56"/>
<path d="M325.936 107.179H315.276V109.312H325.936V107.179Z" fill="#3F3D56"/>
<path d="M352.817 74.8163H335.227C336.584 69.3517 336.421 63.4401 335.227 57.226H352.817C350.354 63.0894 350.354 68.9528 352.817 74.8163Z" fill="#D0CDE1"/>
<path d="M348.553 60.9572H337.892V63.0894H348.553V60.9572Z" fill="#3F3D56"/>
<path d="M348.553 65.2216H337.892V67.3537H348.553V65.2216Z" fill="#3F3D56"/>
<path d="M348.553 69.4859H337.892V71.618H348.553V69.4859Z" fill="#3F3D56"/>
<path d="M134.734 94.74H125.4V85.4064H134.734V94.74ZM126.118 94.022H134.016V86.1243H126.118V94.022Z" fill="#3F3D56"/>
<path d="M134.912 115.561H125.579V106.228H134.912V115.561ZM126.297 114.843H134.194V106.946H126.297V114.843Z" fill="#3F3D56"/>
<path d="M135.09 136.382H125.757V127.049H135.09V136.382ZM126.475 135.664H134.372V127.767H126.475V135.664Z" fill="#3F3D56"/>
<path d="M125.938 130.1C127.524 130.1 128.809 128.814 128.809 127.228C128.809 125.642 127.524 124.356 125.938 124.356C124.351 124.356 123.066 125.642 123.066 127.228C123.066 128.814 124.351 130.1 125.938 130.1Z" fill="#F9A826"/>
</g>
<defs>
<clipPath id="clip0">
<rect width="400" height="218.447" fill="white"/>
</clipPath>
</defs>
</svg>
