<svg width="35" height="40" viewBox="0 0 35 40" fill="none" xmlns="http://www.w3.org/2000/svg">
<path d="M21.9466 0C22.0327 0 22.1171 0.00725701 22.1993 0.0211929L22.472 0.0234C22.8804 0.0234 23.2711 0.189914 23.554 0.484491L33.686 11.0365C33.9542 11.3158 34.104 11.6881 34.104 12.0754V30.6794C34.104 35.6395 30.0811 39.7294 25.144 39.7294H9.168C3.97089 39.7294 0 35.8438 0 30.6794V8.9814C0 4.05906 4.19341 0.0234 9.168 0.0234L21.6944 0.0211083C21.7764 0.00722767 21.8607 0 21.9466 0ZM20.446 3.02L9.168 3.0234C5.82507 3.0234 3 5.7422 3 8.9814V30.6794C3 34.1722 5.61333 36.7294 9.168 36.7294H25.144C28.4131 36.7294 31.104 33.9936 31.104 30.6794L31.102 13.966L29.3503 13.9721C28.6834 13.9713 27.9248 13.9699 27.0814 13.968C23.5408 13.9605 20.6521 11.1869 20.4571 7.69481L20.4466 7.318L20.446 3.02ZM16.6868 15.4284C17.4462 15.4284 18.0738 15.9927 18.1731 16.7249L18.1868 16.9284L18.186 20.328H21.5882C22.4166 20.328 23.0882 20.9996 23.0882 21.828C23.0882 22.5874 22.5239 23.215 21.7917 23.3143L21.5882 23.328H18.186L18.1868 26.7304C18.1868 27.5588 17.5152 28.2304 16.6868 28.2304C15.9274 28.2304 15.2998 27.6661 15.2005 26.9339L15.1868 26.7304L15.186 23.328H11.7862C10.9578 23.328 10.2862 22.6564 10.2862 21.828C10.2862 21.0686 10.8505 20.441 11.5827 20.3417L11.7862 20.328H15.186L15.1868 16.9284C15.1868 16.1 15.8584 15.4284 16.6868 15.4284ZM23.446 4.702L23.4466 7.318C23.4466 9.33113 25.0753 10.9638 27.088 10.968L29.462 10.968L23.446 4.702Z" fill="#200E32"/>
</svg>
