<svg width="100" height="48" viewBox="0 0 100 48" fill="none" xmlns="http://www.w3.org/2000/svg">
<path d="M49.5052 30.202C48.8046 29.8068 48.0761 29.5189 47.3201 29.3389C46.5674 29.1597 45.8313 29.0698 45.1119 29.0698C43.8031 29.0698 42.5983 29.312 41.4995 29.7983C40.4046 30.2829 39.4605 30.939 38.6688 31.7666C37.8779 32.5935 37.2582 33.5549 36.8095 34.6495L36.8088 34.6514C36.3775 35.7475 36.1622 36.9059 36.1622 38.1255C36.1622 39.3649 36.4049 40.5257 36.8911 41.6062L36.8915 41.6071C37.376 42.6658 38.0226 43.5912 38.8314 44.3819L38.8325 44.3831C39.6586 45.1732 40.6101 45.8014 41.6861 46.2677L41.6881 46.2685C42.7671 46.7181 43.9088 46.9427 45.1119 46.9427C45.8666 46.9427 46.6209 46.8439 47.3743 46.6467C48.1486 46.4665 48.8866 46.1692 49.5879 45.7557L49.5889 45.7551C50.3082 45.3235 50.9726 44.7846 51.5822 44.1391C52.0735 43.619 52.517 43.0132 52.9134 42.3226V46.4216V46.5716H53.0634H53.8321H53.9821V46.4216V23.7598V23.6098H53.8321H53.0634H52.9134V23.7598V33.6453C52.5001 32.9357 52.0386 32.3179 51.5284 31.7931C50.9009 31.1298 50.2266 30.5988 49.5052 30.202ZM49.5052 30.202C49.505 30.2018 49.5048 30.2017 49.5045 30.2016L49.4322 30.333L49.5059 30.2024C49.5057 30.2022 49.5055 30.2021 49.5052 30.202ZM25.0378 46.5451H25.2714L25.1742 46.3327L15.4734 25.1286L15.4333 25.041H15.337H14.5418H14.4454L14.4054 25.1288L4.73103 46.3328L4.63418 46.5451H4.86749H5.76866H5.86489L5.90501 46.4576L8.80695 40.1309H21.1249L24.0268 46.4576L24.067 46.5451H24.1632H25.0378ZM34.7126 38.461H34.8626V38.311V37.5689V37.4189H34.7126H25.7009H25.5509V37.5689V38.311V38.461H25.7009H34.7126ZM52.3147 34.948L52.3156 34.9501C52.7313 35.9374 52.9399 37.0129 52.9399 38.1785C52.9399 39.2181 52.7322 40.2137 52.3163 41.1666L52.3158 41.1678C51.9168 42.1046 51.3622 42.9278 50.6514 43.6385C49.9405 44.3495 49.1077 44.9223 48.152 45.3569C47.2 45.7721 46.1871 45.98 45.1119 45.98C44.0365 45.98 43.0234 45.7721 42.0713 45.3566C41.134 44.94 40.3013 44.3763 39.5724 43.665C38.8611 42.9361 38.2974 42.1034 37.8807 41.166C37.4654 40.2139 37.2574 39.2009 37.2574 38.1255C37.2574 37.0482 37.4484 36.0243 37.8301 35.0528L37.8304 35.0519C38.2125 34.0621 38.7499 33.2045 39.4424 32.4774L39.4436 32.4761C40.1366 31.7312 40.9595 31.1419 41.9139 30.7081L41.915 30.7076C42.883 30.2581 43.948 30.0324 45.1119 30.0324C46.1875 30.0324 47.2007 30.2405 48.153 30.656C49.1075 31.0726 49.9395 31.6447 50.6502 32.3727C51.3603 33.1002 51.9153 33.9581 52.3147 34.948ZM74.851 38.4345H75.001V38.2845V37.9665C75.001 36.7626 74.7673 35.6202 74.2995 34.5407C73.8329 33.4639 73.1953 32.5206 72.3867 31.7119C71.5781 30.8854 70.6347 30.2386 69.5576 29.7717C68.4774 29.2858 67.3169 29.0433 66.0778 29.0433C64.8392 29.0433 63.6706 29.2768 62.5734 29.7444L62.5725 29.7448C61.4955 30.2115 60.5519 30.8494 59.7431 31.6582C58.9339 32.4674 58.2961 33.42 57.8295 34.5146C57.3616 35.5945 57.1281 36.7545 57.1281 37.993C57.1281 39.2142 57.3617 40.374 57.8293 41.471L57.8296 41.4718C58.2964 42.5488 58.9342 43.4924 59.7431 44.3012C60.5515 45.1097 61.4944 45.756 62.5706 46.2404L62.5734 46.2415C63.6706 46.7092 64.8392 46.9427 66.0778 46.9427C67.1202 46.9427 68.1272 46.7629 69.0981 46.4034C70.0857 46.0442 70.9839 45.5322 71.7922 44.8676L71.9199 44.7626L71.803 44.6457L71.2729 44.1156L71.1774 44.0201L71.0724 44.1051C70.3415 44.6968 69.5595 45.1571 68.7261 45.487C67.8964 45.8154 67.014 45.98 66.0778 45.98C65.0019 45.98 63.9976 45.7807 63.0635 45.383C62.1439 44.9664 61.3289 44.4115 60.6179 43.7181C59.9243 43.0068 59.3601 42.1826 58.9256 41.2442C58.5304 40.3548 58.2914 39.4185 58.2085 38.4345H74.851ZM73.1766 34.7143L73.178 34.7173C73.5893 35.5893 73.8369 36.516 73.9205 37.4984H58.2063C58.2736 36.5496 58.5044 35.64 58.8988 34.7688C59.3332 33.8308 59.9058 33.0157 60.6165 32.3223L60.6178 32.3209C61.3293 31.6094 62.1447 31.0456 63.0645 30.629C63.9985 30.2139 65.0024 30.0059 66.0778 30.0059C67.1354 30.0059 68.1214 30.2138 69.0375 30.6287L69.0406 30.6301C69.9778 31.0292 70.7921 31.5752 71.4848 32.2679L71.4861 32.2692C72.1965 32.9623 72.76 33.7769 73.1766 34.7143ZM92.5785 29.6536L92.6765 29.4409H92.4423H91.5676H91.4711L91.4311 29.5287L84.3338 45.1013L77.4451 29.5302L77.4056 29.4409H77.3079H76.4332H76.2023L76.2962 29.6518L83.7706 46.4561L83.8102 46.5451H83.9077H84.7028H84.7989L84.8391 46.4578L92.5785 29.6536ZM14.94 26.6393L20.6429 39.0887H9.28812L14.94 26.6393Z" fill="#262626" stroke="#262626" stroke-width="0.3"/>
<path d="M49.5052 17.5907C48.8046 17.9859 48.0761 18.2737 47.3201 18.4537C46.5674 18.6329 45.8313 18.7229 45.1119 18.7229C43.8031 18.7229 42.5983 18.4807 41.4995 17.9944C40.4046 17.5097 39.4605 16.8537 38.6688 16.026C37.8779 15.1992 37.2582 14.2378 36.8095 13.1432L36.8088 13.1412C36.3775 12.0452 36.1622 10.8868 36.1622 9.66715C36.1622 8.42775 36.4049 7.26694 36.8911 6.18644L36.8915 6.18558C37.376 5.12682 38.0226 4.20149 38.8314 3.41072L38.8325 3.40958C39.6586 2.61949 40.6101 1.99127 41.6861 1.52497L41.6881 1.52416C42.7671 1.07455 43.9088 0.849995 45.1119 0.849995C45.8666 0.849995 46.6209 0.948757 47.3743 1.14592C48.1486 1.32621 48.8866 1.62342 49.5879 2.03701L49.5889 2.03759C50.3082 2.46914 50.9726 3.00806 51.5822 3.65353C52.0735 4.17371 52.517 4.77951 52.9134 5.47002V1.37107V1.22107H53.0634H53.8321H53.9821V1.37107V24.0329V24.1829H53.8321H53.0634H52.9134V24.0329V14.1474C52.5001 14.857 52.0386 15.4747 51.5284 15.9996C50.9009 16.6629 50.2266 17.1938 49.5052 17.5907ZM49.5052 17.5907C49.505 17.5908 49.5048 17.5909 49.5045 17.5911L49.4322 17.4596L49.5059 17.5903C49.5057 17.5904 49.5055 17.5906 49.5052 17.5907ZM25.0378 1.24757H25.2714L25.1742 1.45997L15.4734 22.664L15.4333 22.7516H15.337H14.5418H14.4454L14.4054 22.6639L4.73103 1.45983L4.63418 1.24757H4.86749H5.76866H5.86489L5.90501 1.33503L8.80695 7.6618H21.1249L24.0268 1.33503L24.067 1.24757H24.1632H25.0378ZM34.7126 9.33162H34.8626V9.48162V10.2238V10.3738H34.7126H25.7009H25.5509V10.2238V9.48162V9.33162H25.7009H34.7126ZM52.3147 12.8446L52.3156 12.8426C52.7313 11.8553 52.9399 10.7797 52.9399 9.61414C52.9399 8.57459 52.7322 7.57898 52.3163 6.62605L52.3158 6.62484C51.9168 5.68809 51.3622 4.86487 50.6514 4.15414C49.9405 3.44319 49.1077 2.87036 48.152 2.43579C47.2 2.02053 46.1871 1.81262 45.1119 1.81262C44.0365 1.81262 43.0234 2.02061 42.0713 2.43603C41.134 2.85266 40.3013 3.41641 39.5724 4.12765C38.8611 4.85656 38.2974 5.68929 37.8807 6.62662C37.4654 7.57875 37.2574 8.59177 37.2574 9.66715C37.2574 10.7445 37.4484 11.7684 37.8301 12.7399L37.8304 12.7407C38.2125 13.7306 38.7499 14.5882 39.4424 15.3153L39.4436 15.3166C40.1366 16.0615 40.9595 16.6507 41.9139 17.0845L41.915 17.085C42.883 17.5345 43.948 17.7602 45.1119 17.7602C46.1875 17.7602 47.2007 17.5522 48.153 17.1366C49.1075 16.7201 49.9395 16.148 50.6502 15.42C51.3603 14.6925 51.9153 13.8346 52.3147 12.8446ZM74.851 9.35812H75.001V9.50812V9.82618C75.001 11.0301 74.7673 12.1725 74.2995 13.252C73.8329 14.3287 73.1953 15.2721 72.3867 16.0808C71.5781 16.9072 70.6347 17.554 69.5576 18.0209C68.4774 18.5069 67.3169 18.7494 66.0778 18.7494C64.8392 18.7494 63.6706 18.5159 62.5734 18.0482L62.5725 18.0479C61.4955 17.5811 60.5519 16.9433 59.7431 16.1344C58.9339 15.3253 58.2961 14.3727 57.8295 13.2781C57.3616 12.1981 57.1281 11.0381 57.1281 9.79967C57.1281 8.57843 57.3617 7.41866 57.8293 6.32171L57.8296 6.32088C58.2964 5.24384 58.9342 4.3003 59.7431 3.49142C60.5515 2.68299 61.4944 2.03663 62.5706 1.55231L62.5734 1.55114C63.6706 1.08347 64.8392 0.849995 66.0778 0.849995C67.1202 0.849995 68.1272 1.02976 69.0981 1.38928C70.0857 1.74846 70.9839 2.26047 71.7922 2.92502L71.9199 3.03003L71.803 3.14695L71.2729 3.67705L71.1774 3.77254L71.0724 3.68757C70.3415 3.09591 69.5595 2.63556 68.7261 2.30569C67.8964 1.97723 67.014 1.81262 66.0778 1.81262C65.0019 1.81262 63.9976 2.01198 63.0635 2.40962C62.1439 2.82628 61.3289 3.3812 60.6179 4.0746C59.9243 4.78584 59.3601 5.61011 58.9256 6.54842C58.5304 7.43784 58.2914 8.37416 58.2085 9.35812H74.851ZM73.1766 13.0784L73.178 13.0753C73.5893 12.2034 73.8369 11.2767 73.9205 10.2942H58.2063C58.2736 11.2431 58.5044 12.1527 58.8988 13.0238C59.3332 13.9619 59.9058 14.777 60.6165 15.4704L60.6178 15.4717C61.3293 16.1832 62.1447 16.7471 63.0645 17.1637C63.9985 17.5787 65.0024 17.7867 66.0778 17.7867C67.1354 17.7867 68.1214 17.5788 69.0375 17.1639L69.0406 17.1626C69.9778 16.7634 70.7921 16.2174 71.4848 15.5247L71.4861 15.5234C72.1965 14.8303 72.76 14.0157 73.1766 13.0784ZM92.5785 18.139L92.6765 18.3518H92.4423H91.5676H91.4711L91.4311 18.264L84.3338 2.6914L77.4451 18.2625L77.4056 18.3518H77.3079H76.4332H76.2023L76.2962 18.1408L83.7706 1.33661L83.8102 1.24757H83.9077H84.7028H84.7989L84.8391 1.33482L92.5785 18.139ZM14.94 21.1534L20.6429 8.70394H9.28812L14.94 21.1534Z" fill="#262626" stroke="#262626" stroke-width="0.3"/>
<path d="M0 23.8963C0 23.6035 0.191878 23.3662 0.428571 23.3662H99.5714C99.8081 23.3662 100 23.6035 100 23.8963C100 24.1891 99.8081 24.4264 99.5714 24.4264H0.428569C0.191876 24.4264 0 24.1891 0 23.8963Z" fill="#262626"/>
</svg>
