<svg width="40" height="40" viewBox="0 0 40 40" fill="none" xmlns="http://www.w3.org/2000/svg">
<path d="M38.4892 25.4538C39.3152 25.4538 39.9852 26.1238 39.9852 26.9498C39.9852 26.9742 39.8982 28.0758 39.8098 29.2368L39.7573 29.9323C39.7061 30.6187 39.6605 31.2531 39.6392 31.6158C39.5252 33.4918 38.7972 35.4058 37.6912 36.7378C36.1512 38.5938 34.1892 39.4618 31.5212 39.4678C31.4753 39.4679 31.4242 39.4679 31.3679 39.468L28.7467 39.4699C28.6141 39.47 28.4782 39.47 28.3392 39.4701H11.7602C11.6212 39.47 11.4853 39.47 11.3527 39.4699L8.73231 39.468L8.5792 39.4678C5.9092 39.4618 3.9472 38.5938 2.4072 36.7358C1.3032 35.4058 0.5732 33.4918 0.4612 31.6158C0.4392 31.2531 0.3932 30.6187 0.341644 29.9323L0.28892 29.2368C0.200237 28.0758 0.1132 26.9742 0.1132 26.9498C0.1132 26.1238 0.7832 25.4538 1.6092 25.4538C2.3952 25.4538 3.0212 26.0658 3.0812 26.8338C3.0812 26.8338 3.3892 30.3318 3.4552 31.4358C3.5292 32.6578 4.0252 33.9878 4.7172 34.8198C5.6972 36.0018 6.7812 36.4638 8.5832 36.4678C8.64349 36.4679 8.71301 36.468 8.79132 36.4681L12.1256 36.4699C12.3155 36.4699 12.5107 36.47 12.7105 36.47H27.3868C27.5867 36.47 27.7818 36.4699 27.9718 36.4699L31.3069 36.4681L31.5152 36.4678C33.3192 36.4638 34.4032 36.0018 35.3812 34.8218C36.0752 33.9878 36.5712 32.6578 36.6452 31.4358C36.7092 30.3318 37.0172 26.8338 37.0172 26.8338C37.0772 26.0658 37.7032 25.4538 38.4892 25.4538ZM19.9902 25.2682C20.8182 25.2682 21.4902 25.9402 21.4902 26.7682V29.3562C21.4902 30.1842 20.8182 30.8562 19.9902 30.8562C19.1622 30.8562 18.4902 30.1842 18.4902 29.3562V26.7682C18.4902 25.9402 19.1622 25.2682 19.9902 25.2682ZM22.572 0C25.576 0 28.038 2.26 28.412 5.162H32.366C36.564 5.162 39.98 8.578 39.98 12.778V19.712C39.98 20.216 39.728 20.684 39.308 20.964C35.184 23.692 30.29 25.51 25.152 26.222C25.084 26.232 25.014 26.236 24.946 26.236C24.268 26.236 23.664 25.776 23.492 25.104C23.088 23.512 21.644 22.4 19.98 22.4C18.298 22.4 16.868 23.488 16.422 25.112C16.222 25.84 15.528 26.308 14.768 26.202C9.666 25.49 4.792 23.68 0.674 20.964C0.252 20.686 0 20.216 0 19.712V12.778C0 8.578 3.424 5.162 7.634 5.162H11.568C11.944 2.258 14.404 0 17.408 0H22.572ZM32.366 8.162H7.634C5.08 8.162 3 10.234 3 12.778V18.892C6.284 20.926 10.058 22.35 14.022 23.048C15.15 20.846 17.44 19.4 19.98 19.4C22.542 19.4 24.822 20.852 25.918 23.066C29.906 22.364 33.694 20.934 36.98 18.892V12.778C36.98 10.234 34.91 8.162 32.366 8.162ZM22.572 3H17.408C16.062 3 14.938 3.922 14.602 5.162H25.376C25.042 3.922 23.916 3 22.572 3Z" fill="#200E32"/>
</svg>
