<svg width="400" height="333" viewBox="0 0 400 333" fill="none" xmlns="http://www.w3.org/2000/svg">
<g clip-path="url(#clip0)">
<path d="M97.3682 86.4176H40.9262C38.5157 86.4176 36.5616 88.3717 36.5616 90.7821V200.742C36.5616 203.152 38.5157 205.107 40.9262 205.107H97.3682C99.7787 205.107 101.733 203.152 101.733 200.742V90.7821C101.733 88.3717 99.7787 86.4176 97.3682 86.4176Z" fill="url(#paint0_linear)"/>
<path d="M95.8668 88.3685H42.4275C40.0171 88.3685 38.063 90.3226 38.063 92.7331V197.984C38.063 200.394 40.0171 202.348 42.4275 202.348H95.8668C98.2773 202.348 100.231 200.394 100.231 197.984V92.7331C100.231 90.3226 98.2773 88.3685 95.8668 88.3685Z" fill="white"/>
<path d="M93.3894 96.2128L45.2575 96.28L45.387 189.035L93.519 188.968L93.3894 96.2128Z" fill="#E6E6E6"/>
<path d="M69.4634 199.616C71.5822 199.613 73.2974 197.85 73.2944 195.678C73.2913 193.506 71.5713 191.748 69.4525 191.751C67.3337 191.754 65.6185 193.517 65.6215 195.689C65.6246 197.86 67.3446 199.619 69.4634 199.616Z" fill="#DBDBDB"/>
<path d="M62.0298 92.7127C62.454 92.7121 62.7975 92.3599 62.7969 91.9261C62.7962 91.4922 62.4518 91.1409 62.0276 91.1415C61.6034 91.1421 61.2599 91.4943 61.2605 91.9282C61.2611 92.3621 61.6056 92.7133 62.0298 92.7127Z" fill="#DBDBDB"/>
<path d="M76.9414 91.317L65.9166 91.3324C65.6756 91.3327 65.4805 91.5284 65.4808 91.7695L65.4812 92.075C65.4816 92.316 65.6772 92.5112 65.9183 92.5108L76.9431 92.4954C77.1841 92.4951 77.3793 92.2994 77.3789 92.0584L77.3785 91.7529C77.3782 91.5118 77.1825 91.3167 76.9414 91.317Z" fill="#DBDBDB"/>
<path d="M83.0133 150.035H55.7612V178.649H83.0133V150.035Z" fill="url(#paint1_linear)"/>
<path d="M81.8305 151.279H56.9483V177.405H81.8305V151.279Z" fill="#F9A826"/>
<g opacity="0.5">
<path opacity="0.5" d="M71.2727 163.12V162.627H72.5821V160.1C72.9787 159.497 73.2071 158.8 73.2439 158.08C73.2806 157.36 73.1242 156.643 72.7909 156.004C72.4576 155.364 71.9595 154.826 71.3481 154.444C70.7368 154.061 70.0344 153.849 69.3136 153.83C68.5928 153.81 67.8799 153.983 67.2486 154.332C66.6173 154.68 66.0906 155.191 65.7229 155.811C65.3552 156.431 65.1599 157.138 65.1573 157.859C65.1547 158.58 65.3448 159.289 65.7079 159.912V162.627H67.1526V163.207C65.3831 163.695 63.8226 164.75 62.7102 166.21C61.5978 167.67 60.995 169.455 60.9942 171.29V178.649H77.7933V171.29C77.7924 169.391 77.1468 167.549 75.9622 166.064C74.7776 164.58 73.1242 163.542 71.2727 163.12Z" fill="url(#paint2_linear)"/>
</g>
<path d="M72.2896 157.996H66.0702V162.971H72.2896V157.996Z" fill="#F55F44"/>
<path d="M67.4145 163.233H71.3425C72.8311 163.233 74.2588 163.825 75.3114 164.877C76.364 165.93 76.9553 167.357 76.9553 168.846V177.479H61.8017V168.837C61.804 167.35 62.3964 165.925 63.4487 164.874C64.5011 163.823 65.9274 163.233 67.4145 163.233Z" fill="#FDD835"/>
<path d="M69.7146 160.745H68.75C67.9907 160.745 67.3752 161.361 67.3752 162.12V164.014C67.3752 164.774 67.9907 165.389 68.75 165.389H69.7146C70.4739 165.389 71.0894 164.774 71.0894 164.014V162.12C71.0894 161.361 70.4739 160.745 69.7146 160.745Z" fill="#FDA57D"/>
<path d="M68.523 165.25L69.217 166.262L69.9459 165.25H68.523Z" fill="#FDA57D"/>
<path opacity="0.1" d="M64.6561 168.907C64.6561 168.907 63.9185 176.248 64.3942 176.724L64.6561 168.907Z" fill="black"/>
<path opacity="0.1" d="M73.7779 168.907C73.7779 168.907 74.5156 176.248 74.0398 176.724L73.7779 168.907Z" fill="black"/>
<path opacity="0.05" d="M69.2345 163.002C69.8942 163.003 70.5368 162.791 71.0676 162.4C70.9981 161.963 70.7754 161.566 70.4395 161.279C70.1036 160.992 69.6764 160.833 69.2345 160.833C68.7926 160.833 68.3654 160.992 68.0294 161.279C67.6935 161.566 67.4709 161.963 67.4014 162.4C67.9322 162.791 68.5747 163.003 69.2345 163.002Z" fill="black"/>
<path d="M69.2345 162.334C71.2568 162.334 72.8963 160.695 72.8963 158.672C72.8963 156.65 71.2568 155.01 69.2345 155.01C67.2121 155.01 65.5726 156.65 65.5726 158.672C65.5726 160.695 67.2121 162.334 69.2345 162.334Z" fill="#F55F44"/>
<path d="M69.2345 162.91C70.9435 162.91 72.3289 161.525 72.3289 159.816C72.3289 158.107 70.9435 156.721 69.2345 156.721C67.5255 156.721 66.14 158.107 66.14 159.816C66.14 161.525 67.5255 162.91 69.2345 162.91Z" fill="#FDA57D"/>
<path d="M66.1313 160.008C66.2518 160.008 66.3495 159.832 66.3495 159.615C66.3495 159.398 66.2518 159.222 66.1313 159.222C66.0108 159.222 65.9131 159.398 65.9131 159.615C65.9131 159.832 66.0108 160.008 66.1313 160.008Z" fill="#FDA57D"/>
<path d="M72.342 160.008C72.4625 160.008 72.5602 159.832 72.5602 159.615C72.5602 159.398 72.4625 159.222 72.342 159.222C72.2215 159.222 72.1238 159.398 72.1238 159.615C72.1238 159.832 72.2215 160.008 72.342 160.008Z" fill="#FDA57D"/>
<path d="M90.3893 102.243H48.3851V104.068H90.3893V102.243Z" fill="white"/>
<path d="M90.3893 105.892H48.3851V107.716H90.3893V105.892Z" fill="white"/>
<path d="M72.1281 109.545H48.3851V111.37H72.1281V109.545Z" fill="white"/>
<path d="M83.0831 113.198H48.3851V115.023H83.0831V113.198Z" fill="white"/>
<path d="M77.6056 116.851H48.3851V118.676H77.6056V116.851Z" fill="white"/>
<path d="M90.3893 120.505H48.3851V122.329H90.3893V120.505Z" fill="white"/>
<path d="M86.7406 125.982H50.2139V140.59H86.7406V125.982Z" fill="white"/>
<path d="M307.904 199.516C307.904 199.516 314.014 241.498 349.886 255.443L277.304 255.543L204.722 255.643C240.538 241.598 246.556 199.598 246.556 199.598L307.904 199.516Z" fill="#E0E0E0"/>
<path d="M350.534 255.434L203.999 255.638L204.012 264.507L350.546 264.303L350.534 255.434Z" fill="url(#paint3_linear)"/>
<path d="M349.897 255.435L204.733 255.637L204.742 262.481L349.906 262.278L349.897 255.435Z" fill="#F5F5F5"/>
<path d="M395.094 48.4463L159.017 48.7736C157.733 48.8045 156.513 49.3442 155.627 50.274C154.741 51.2037 154.26 52.4475 154.29 53.7317L154.474 191.467V196.055C154.474 206.529 162.605 214.992 172.608 214.979L381.935 214.691C391.934 214.691 400.031 206.185 400.017 195.718V191.136L399.834 53.4C399.849 52.7634 399.737 52.1302 399.507 51.5366C399.277 50.943 398.931 50.4006 398.491 49.9405C398.051 49.4804 397.524 49.1117 396.941 48.8553C396.359 48.5989 395.731 48.4599 395.094 48.4463Z" fill="url(#paint4_linear)"/>
<path d="M161.819 53.0596H392.043C393.288 53.0596 394.481 53.5539 395.361 54.4338C396.241 55.3137 396.735 56.5071 396.735 57.7514V188.827H157.123V57.7514C157.123 57.1349 157.244 56.5245 157.48 55.9549C157.717 55.3854 158.063 54.868 158.499 54.4322C158.935 53.9965 159.453 53.651 160.022 53.4155C160.592 53.1799 161.203 53.059 161.819 53.0596Z" fill="white"/>
<path d="M380.329 210.614L174.166 210.898C171.97 210.901 169.795 210.471 167.764 209.633C165.734 208.796 163.889 207.566 162.334 206.015C160.779 204.464 159.544 202.622 158.701 200.594C157.858 198.566 157.423 196.391 157.42 194.195V188.521L397.032 188.19V193.863C397.036 196.06 396.606 198.236 395.769 200.267C394.931 202.298 393.702 204.143 392.15 205.699C390.599 207.254 388.757 208.489 386.729 209.333C384.7 210.176 382.526 210.612 380.329 210.614Z" fill="#F5F5F5"/>
<path d="M385.793 64.0581H168.959V173.66H385.793V64.0581Z" fill="#E6E6E6"/>
<path d="M367.126 71.2858H328.745V111.588H367.126V71.2858Z" fill="url(#paint5_linear)"/>
<path d="M365.459 73.0403H330.412V109.838H365.459V73.0403Z" fill="#F9A826"/>
<g opacity="0.5">
<path opacity="0.5" d="M350.332 89.4029L349.895 89.2458L349.869 89.2851H349.843V88.0979C349.843 87.9517 349.831 87.8058 349.808 87.6614C350.515 87.1411 351.056 86.4271 351.366 85.6058C351.977 84.8134 352.354 83.8657 352.454 82.8699C352.554 81.8742 352.374 80.8704 351.932 79.9723C351.491 79.0742 350.806 78.3178 349.957 77.7888C349.107 77.2598 348.127 76.9794 347.126 76.9794C346.125 76.9794 345.145 77.2598 344.295 77.7888C343.446 78.3178 342.761 79.0742 342.32 79.9723C341.878 80.8704 341.698 81.8742 341.798 82.8699C341.898 83.8657 342.275 84.8134 342.886 85.6058C343.196 86.4271 343.737 87.1411 344.444 87.6614C344.421 87.8058 344.409 87.9517 344.409 88.0979V89.4073C342.067 90.0538 340.002 91.4508 338.53 93.3838C337.058 95.3169 336.261 97.6794 336.26 100.109V109.846H358.432V100.096C358.433 97.6741 357.642 95.3183 356.179 93.3878C354.717 91.4573 352.663 90.0579 350.332 89.4029Z" fill="url(#paint6_linear)"/>
</g>
<path d="M346.674 89.1629H348.027C350.682 89.1629 353.227 90.2173 355.104 92.0941C356.981 93.9709 358.035 96.5165 358.035 99.1707V109.209H336.649V99.1707C336.649 97.855 336.908 96.5522 337.412 95.3368C337.916 94.1215 338.655 93.0175 339.586 92.0879C340.517 91.1584 341.623 90.4216 342.839 89.9196C344.055 89.4177 345.359 89.1606 346.674 89.1629Z" fill="#514ABF"/>
<path d="M347.298 85.6757H346.971C345.616 85.6757 344.518 86.7738 344.518 88.1285V89.7652C344.518 91.1199 345.616 92.2181 346.971 92.2181H347.298C348.653 92.2181 349.751 91.1199 349.751 89.7652V88.1285C349.751 86.7738 348.653 85.6757 347.298 85.6757Z" fill="#FDA57D"/>
<path opacity="0.05" d="M342.703 90.3195L344.457 94.0817L346.199 92.3403L344.457 89.6648L342.703 90.3195Z" fill="black"/>
<path d="M342.764 90.1361L344.509 93.8984L346.255 92.1526L344.509 89.4814L343.706 89.7259C343.628 89.7502 343.55 89.7793 343.475 89.8132L342.764 90.1361Z" fill="white"/>
<path opacity="0.05" d="M351.571 90.1362L349.812 94.0817L348.067 92.3403L349.86 89.5251L351.571 90.1362Z" fill="black"/>
<path d="M351.51 89.9528L349.764 93.8809L348.019 92.1351L349.812 89.3199L350.14 89.416C350.495 89.5174 350.843 89.6413 351.183 89.787L351.51 89.9528Z" fill="white"/>
<path d="M346.129 92.0173L347.106 93.4402L348.136 92.0173H346.129Z" fill="#FDA57D"/>
<path opacity="0.1" d="M340.682 97.1718C340.682 97.1718 339.643 107.511 340.315 108.183L340.682 97.1718Z" fill="black"/>
<path opacity="0.1" d="M353.531 97.1718C353.531 97.1718 354.57 107.511 353.898 108.183L353.531 97.1718Z" fill="black"/>
<path opacity="0.05" d="M347.133 88.8487C348.062 88.8487 348.967 88.5521 349.716 88.002C349.618 87.3875 349.304 86.8282 348.83 86.4243C348.357 86.0204 347.755 85.7983 347.133 85.7979C346.51 85.7983 345.908 86.0204 345.435 86.4243C344.961 86.8282 344.647 87.3875 344.549 88.002C345.298 88.5521 346.203 88.8487 347.133 88.8487Z" fill="black"/>
<path d="M347.133 87.9059C349.979 87.9059 352.287 85.5982 352.287 82.7514C352.287 79.9047 349.979 77.5969 347.133 77.5969C344.286 77.5969 341.978 79.9047 341.978 82.7514C341.978 85.5982 344.286 87.9059 347.133 87.9059Z" fill="black"/>
<path d="M347.132 88.7264C349.541 88.7264 351.493 86.7743 351.493 84.3663C351.493 81.9582 349.541 80.0061 347.132 80.0061C344.724 80.0061 342.772 81.9582 342.772 84.3663C342.772 86.7743 344.724 88.7264 347.132 88.7264Z" fill="#FDA57D"/>
<path opacity="0.05" d="M343.619 80.0454L344.719 81.3897C344.719 81.3897 349.55 81.8261 350.1 80.7175C350.65 79.609 346.919 78.819 346.919 78.819L343.619 80.0454Z" fill="black"/>
<path d="M343.619 79.9232L344.719 81.2675C344.719 81.2675 349.55 81.7039 350.1 80.5954C350.65 79.4868 346.919 78.6968 346.919 78.6968L343.619 79.9232Z" fill="black"/>
<path d="M342.764 84.6325C342.932 84.6325 343.069 84.3862 343.069 84.0825C343.069 83.7788 342.932 83.5326 342.764 83.5326C342.595 83.5326 342.458 83.7788 342.458 84.0825C342.458 84.3862 342.595 84.6325 342.764 84.6325Z" fill="#FDA57D"/>
<path d="M351.51 84.6325C351.679 84.6325 351.816 84.3862 351.816 84.0825C351.816 83.7788 351.679 83.5326 351.51 83.5326C351.341 83.5326 351.205 83.7788 351.205 84.0825C351.205 84.3862 351.341 84.6325 351.51 84.6325Z" fill="#FDA57D"/>
<path d="M367.349 119.632H328.967V159.934H367.349V119.632Z" fill="url(#paint7_linear)"/>
<path d="M365.682 121.382H330.635V158.179H365.682V121.382Z" fill="#F9A826"/>
<g opacity="0.5">
<path opacity="0.5" d="M350.807 137.963V136.61C350.807 136.544 350.807 136.474 350.807 136.409C351.55 135.853 352.116 135.096 352.44 134.227C352.977 133.53 353.345 132.719 353.516 131.857C353.687 130.995 353.656 130.105 353.426 129.256C353.196 128.408 352.772 127.624 352.188 126.967C351.604 126.309 350.876 125.796 350.061 125.467C350.123 125.19 350.124 124.903 350.063 124.626C350.003 124.349 349.882 124.088 349.709 123.863C349.537 123.638 349.317 123.453 349.065 123.322C348.814 123.191 348.536 123.117 348.253 123.105C347.969 123.093 347.687 123.143 347.425 123.253C347.163 123.362 346.928 123.527 346.737 123.737C346.546 123.947 346.404 124.196 346.32 124.467C346.236 124.738 346.212 125.024 346.251 125.306C345.371 125.576 344.57 126.056 343.916 126.704C343.263 127.352 342.776 128.149 342.497 129.026C342.219 129.904 342.157 130.836 342.317 131.742C342.478 132.648 342.856 133.502 343.418 134.231C343.742 135.1 344.308 135.858 345.051 136.413C345.051 136.479 345.051 136.544 345.051 136.614V138.046C342.614 138.513 340.415 139.814 338.833 141.725C337.25 143.637 336.383 146.039 336.378 148.52V160.004H359.99V148.538C359.99 145.965 359.06 143.479 357.373 141.536C355.686 139.593 353.355 138.324 350.807 137.963Z" fill="url(#paint8_linear)"/>
</g>
<path d="M347.482 138.207H348.835C350.149 138.207 351.45 138.466 352.665 138.969C353.879 139.472 354.982 140.209 355.911 141.138C356.841 142.068 357.578 143.171 358.081 144.385C358.584 145.599 358.843 146.901 358.843 148.215V158.253H337.456V148.215C337.456 145.561 338.511 143.015 340.388 141.138C342.264 139.261 344.81 138.207 347.464 138.207H347.482Z" fill="white"/>
<path d="M348.101 134.72H347.774C346.419 134.72 345.321 135.818 345.321 137.173V138.809C345.321 140.164 346.419 141.262 347.774 141.262H348.101C349.456 141.262 350.554 140.164 350.554 138.809V137.173C350.554 135.818 349.456 134.72 348.101 134.72Z" fill="#FDB797"/>
<path d="M346.936 141.062L347.914 142.484L348.939 141.062H346.936Z" fill="#FDB797"/>
<path opacity="0.1" d="M341.489 146.212C341.489 146.212 340.451 156.551 341.123 157.223L341.489 146.212Z" fill="black"/>
<path opacity="0.1" d="M354.338 146.212C354.338 146.212 355.377 156.551 354.705 157.223L354.338 146.212Z" fill="black"/>
<path opacity="0.05" d="M347.957 137.893C348.887 137.893 349.792 137.596 350.541 137.046C350.443 136.432 350.129 135.872 349.655 135.468C349.182 135.065 348.58 134.842 347.957 134.842C347.329 134.834 346.719 135.052 346.238 135.457C345.757 135.862 345.438 136.426 345.339 137.046C346.097 137.603 347.016 137.9 347.957 137.893Z" fill="black"/>
<path d="M347.94 136.95C350.787 136.95 353.094 134.642 353.094 131.796C353.094 128.949 350.787 126.641 347.94 126.641C345.093 126.641 342.785 128.949 342.785 131.796C342.785 134.642 345.093 136.95 347.94 136.95Z" fill="#FDD835"/>
<path d="M347.94 137.771C350.348 137.771 352.3 135.819 352.3 133.41C352.3 131.002 350.348 129.05 347.94 129.05C345.532 129.05 343.58 131.002 343.58 133.41C343.58 135.819 345.532 137.771 347.94 137.771Z" fill="#FDB797"/>
<path d="M343.567 133.677C343.735 133.677 343.872 133.43 343.872 133.127C343.872 132.823 343.735 132.577 343.567 132.577C343.398 132.577 343.261 132.823 343.261 133.127C343.261 133.43 343.398 133.677 343.567 133.677Z" fill="#FDB797"/>
<path d="M352.318 133.677C352.486 133.677 352.623 133.43 352.623 133.127C352.623 132.823 352.486 132.577 352.318 132.577C352.149 132.577 352.012 132.823 352.012 133.127C352.012 133.43 352.149 133.677 352.318 133.677Z" fill="#FDB797"/>
<path d="M348.158 128.391C349.125 128.391 349.908 127.608 349.908 126.641C349.908 125.674 349.125 124.891 348.158 124.891C347.192 124.891 346.408 125.674 346.408 126.641C346.408 127.608 347.192 128.391 348.158 128.391Z" fill="#FDD835"/>
<path d="M344.653 128.391C344.653 128.391 346.399 131.883 351.663 130.137L349.917 128.391H344.653Z" fill="#FDD835"/>
<path d="M282.817 77.8108H186.37V82.0051H282.817V77.8108Z" fill="white"/>
<path d="M282.817 86.1951H186.37V90.3894H282.817V86.1951Z" fill="white"/>
<path d="M240.882 94.5836H186.37V98.7779H240.882V94.5836Z" fill="white"/>
<path d="M266.044 102.968H186.37V107.162H266.044V102.968Z" fill="white"/>
<path d="M253.461 111.356H186.37V115.551H253.461V111.356Z" fill="white"/>
<path d="M282.817 119.741H186.37V123.935H282.817V119.741Z" fill="white"/>
<path d="M274.428 132.324H190.564V165.869H274.428V132.324Z" fill="white"/>
<path d="M60.5709 266.511H14.4422V14.9092H287.011V35.8764" stroke="#3AD29F" stroke-width="6" stroke-miterlimit="10" stroke-dasharray="12 12"/>
<g opacity="0.5">
<path opacity="0.5" d="M15.8432 31.6865C24.5932 31.6865 31.6865 24.5932 31.6865 15.8432C31.6865 7.09325 24.5932 0 15.8432 0C7.09325 0 0 7.09325 0 15.8432C0 24.5932 7.09325 31.6865 15.8432 31.6865Z" fill="url(#paint9_linear)"/>
</g>
<path d="M15.8432 30.7524C24.0774 30.7524 30.7524 24.0773 30.7524 15.8432C30.7524 7.60904 24.0774 0.93396 15.8432 0.93396C7.60909 0.93396 0.934006 7.60904 0.934006 15.8432C0.934006 24.0773 7.60909 30.7524 15.8432 30.7524Z" fill="#69F0AE"/>
<path d="M10.2523 14.9092L15.8432 20.0332L23.7605 8.38428L26.5581 10.7149L15.8432 24.6945L7.92162 15.8433L10.2523 14.9092Z" fill="white"/>
<path d="M185.182 144.915L79.203 145.063C75.0642 145.069 71.7138 148.428 71.7196 152.567L71.9605 325.097C71.9662 329.235 75.326 332.586 79.4648 332.58L185.444 332.432C189.583 332.426 192.933 329.067 192.928 324.928L192.687 152.398C192.681 148.259 189.321 144.909 185.182 144.915Z" fill="url(#paint10_linear)"/>
<path d="M184.661 159.24L80.1963 159.386L80.4159 316.661L184.881 316.515L184.661 159.24Z" fill="url(#paint11_linear)"/>
<path d="M183.467 147.75L80.9266 147.893C77.8701 147.897 75.3958 150.378 75.4001 153.435L75.6344 321.246C75.6387 324.303 78.1199 326.777 81.1763 326.773L183.716 326.63C186.773 326.625 189.247 324.144 189.243 321.088L189.009 153.276C189.004 150.22 186.523 147.745 183.467 147.75Z" fill="white"/>
<path d="M181.474 161.422L83.3636 161.559L83.5731 311.594L181.683 311.457L181.474 161.422Z" fill="#E6E6E6"/>
<path d="M132.415 323.389C134.647 323.389 136.457 321.535 136.457 319.248C136.457 316.96 134.647 315.106 132.415 315.106C130.183 315.106 128.374 316.96 128.374 319.248C128.374 321.535 130.183 323.389 132.415 323.389Z" fill="#DBDBDB"/>
<path d="M115.436 156.404C116.181 156.403 116.783 155.784 116.782 155.023C116.781 154.261 116.177 153.644 115.432 153.645C114.687 153.646 114.084 154.265 114.085 155.027C114.086 155.788 114.691 156.405 115.436 156.404Z" fill="#DBDBDB"/>
<path d="M139.359 154.162L122.503 154.186C122.32 154.186 122.172 154.335 122.172 154.518L122.173 155.234C122.173 155.417 122.322 155.565 122.505 155.565L139.361 155.541C139.544 155.541 139.692 155.392 139.692 155.209L139.691 154.493C139.691 154.31 139.542 154.162 139.359 154.162Z" fill="#DBDBDB"/>
<path d="M170.312 253.928H131.931V294.23H170.312V253.928Z" fill="url(#paint12_linear)"/>
<path d="M168.645 255.683H133.598V292.48H168.645V255.683Z" fill="#F9A826"/>
<g opacity="0.5">
<path opacity="0.5" d="M154.103 272.05L153.666 271.892L153.64 271.932H153.614V270.745C153.614 270.598 153.602 270.452 153.579 270.308C154.286 269.788 154.827 269.074 155.137 268.252C155.748 267.46 156.125 266.512 156.225 265.517C156.325 264.521 156.144 263.517 155.703 262.619C155.262 261.721 154.577 260.964 153.728 260.435C152.878 259.906 151.898 259.626 150.897 259.626C149.896 259.626 148.916 259.906 148.066 260.435C147.217 260.964 146.532 261.721 146.091 262.619C145.649 263.517 145.468 264.521 145.568 265.517C145.668 266.512 146.046 267.46 146.657 268.252C146.967 269.074 147.508 269.788 148.215 270.308C148.192 270.452 148.18 270.598 148.18 270.745V272.054C145.838 272.7 143.773 274.097 142.301 276.03C140.829 277.964 140.032 280.326 140.031 282.756V292.493H162.225V282.738C162.224 280.314 161.429 277.957 159.962 276.027C158.496 274.097 156.438 272.7 154.103 272.05Z" fill="url(#paint13_linear)"/>
</g>
<path d="M150.445 271.805H151.798C154.452 271.805 156.998 272.86 158.875 274.736C160.752 276.613 161.806 279.159 161.806 281.813V291.851H140.42V281.813C140.42 280.497 140.679 279.195 141.183 277.979C141.687 276.764 142.426 275.66 143.357 274.73C144.288 273.801 145.394 273.064 146.61 272.562C147.826 272.06 149.129 271.803 150.445 271.805Z" fill="#3AD29F"/>
<path d="M151.069 268.318H150.742C149.387 268.318 148.289 269.416 148.289 270.771V272.407C148.289 273.762 149.387 274.86 150.742 274.86H151.069C152.424 274.86 153.522 273.762 153.522 272.407V270.771C153.522 269.416 152.424 268.318 151.069 268.318Z" fill="#BE7C5E"/>
<path d="M149.9 274.66L150.877 276.082L151.907 274.66H149.9Z" fill="#BE7C5E"/>
<path opacity="0.1" d="M144.453 279.814C144.453 279.814 143.414 290.154 144.086 290.826L144.453 279.814Z" fill="black"/>
<path opacity="0.1" d="M157.302 279.814C157.302 279.814 158.341 290.154 157.668 290.826L157.302 279.814Z" fill="black"/>
<path opacity="0.05" d="M150.903 271.473C151.833 271.473 152.738 271.177 153.487 270.627C153.389 270.012 153.075 269.453 152.601 269.049C152.128 268.645 151.526 268.423 150.903 268.423C150.281 268.423 149.679 268.645 149.206 269.049C148.732 269.453 148.418 270.012 148.32 270.627C149.069 271.177 149.974 271.473 150.903 271.473Z" fill="black"/>
<path d="M150.903 270.548C153.75 270.548 156.058 268.241 156.058 265.394C156.058 262.547 153.75 260.239 150.903 260.239C148.057 260.239 145.749 262.547 145.749 265.394C145.749 268.241 148.057 270.548 150.903 270.548Z" fill="#444444"/>
<path d="M150.903 271.369C153.312 271.369 155.264 269.417 155.264 267.009C155.264 264.601 153.312 262.648 150.903 262.648C148.495 262.648 146.543 264.601 146.543 267.009C146.543 269.417 148.495 271.369 150.903 271.369Z" fill="#BE7C5E"/>
<path opacity="0.05" d="M147.39 262.688L148.49 264.032C148.49 264.032 153.321 264.468 153.871 263.36C154.421 262.251 150.69 261.461 150.69 261.461L147.39 262.688Z" fill="black"/>
<path d="M147.39 262.566L148.49 263.91C148.49 263.91 153.321 264.346 153.871 263.238C154.421 262.129 150.69 261.339 150.69 261.339L147.39 262.566Z" fill="#444444"/>
<path d="M146.535 267.275C146.703 267.275 146.84 267.029 146.84 266.725C146.84 266.421 146.703 266.175 146.535 266.175C146.366 266.175 146.229 266.421 146.229 266.725C146.229 267.029 146.366 267.275 146.535 267.275Z" fill="#BE7C5E"/>
<path d="M155.281 267.275C155.45 267.275 155.587 267.029 155.587 266.725C155.587 266.421 155.45 266.175 155.281 266.175C155.112 266.175 154.976 266.421 154.976 266.725C154.976 267.029 155.112 267.275 155.281 267.275Z" fill="#BE7C5E"/>
<path d="M147.495 260.601C147.836 260.166 148.307 259.849 148.839 259.698C149.804 259.314 150.807 258.921 151.842 258.991C151.943 258.99 152.041 259.019 152.126 259.074C152.195 259.147 152.252 259.231 152.296 259.323C152.61 259.79 153.492 259.759 153.605 260.309C153.636 260.488 153.561 260.68 153.605 260.855C153.719 261.291 154.334 261.247 154.696 261.496C154.889 261.67 155.006 261.913 155.023 262.172C155.039 262.432 154.953 262.687 154.784 262.884C154.424 263.265 153.959 263.53 153.448 263.644C152.551 263.987 151.576 264.073 150.633 263.892C149.31 263.547 146.216 262.692 147.495 260.601Z" fill="#444444"/>
<path d="M131.032 253.492H92.6501V293.794H131.032V253.492Z" fill="url(#paint14_linear)"/>
<path d="M129.365 255.246H94.3174V292.043H129.365V255.246Z" fill="#F9A826"/>
<g opacity="0.5">
<path opacity="0.5" d="M114.822 271.613L114.385 271.456L114.359 271.495H114.333V270.308C114.333 270.162 114.321 270.016 114.298 269.872C115.005 269.351 115.546 268.637 115.856 267.816C116.468 267.024 116.845 266.076 116.945 265.08C117.045 264.084 116.864 263.081 116.422 262.183C115.981 261.284 115.297 260.528 114.447 259.999C113.598 259.47 112.617 259.19 111.616 259.19C110.615 259.19 109.635 259.47 108.785 259.999C107.936 260.528 107.252 261.284 106.81 262.183C106.369 263.081 106.188 264.084 106.288 265.08C106.388 266.076 106.765 267.024 107.376 267.816C107.686 268.637 108.227 269.351 108.934 269.872C108.911 270.016 108.899 270.162 108.899 270.308V271.617C106.557 272.264 104.492 273.661 103.02 275.594C101.548 277.527 100.751 279.89 100.751 282.319V292.057H122.944V282.302C122.943 279.878 122.148 277.521 120.681 275.591C119.215 273.661 117.157 272.264 114.822 271.613Z" fill="url(#paint15_linear)"/>
</g>
<path d="M111.164 271.369H112.517C113.832 271.369 115.133 271.628 116.347 272.13C117.562 272.633 118.665 273.371 119.594 274.3C120.523 275.229 121.261 276.332 121.764 277.547C122.266 278.761 122.525 280.062 122.525 281.377V291.415H101.139V281.377C101.139 280.061 101.399 278.758 101.903 277.543C102.407 276.327 103.145 275.223 104.077 274.294C105.008 273.364 106.113 272.627 107.329 272.125C108.545 271.624 109.849 271.366 111.164 271.369Z" fill="#514ABF"/>
<path d="M111.789 267.881H111.461C110.107 267.881 109.008 268.98 109.008 270.334V271.971C109.008 273.326 110.107 274.424 111.461 274.424H111.789C113.143 274.424 114.241 273.326 114.241 271.971V270.334C114.241 268.98 113.143 267.881 111.789 267.881Z" fill="#FDA57D"/>
<path opacity="0.1" d="M105.172 279.378C105.172 279.378 104.133 289.717 104.805 290.389L105.172 279.378Z" fill="black"/>
<path opacity="0.1" d="M118.021 279.378C118.021 279.378 119.06 289.717 118.388 290.389L118.021 279.378Z" fill="black"/>
<path opacity="0.05" d="M111.623 271.037C112.552 271.037 113.457 270.74 114.207 270.19C114.108 269.576 113.794 269.016 113.32 268.613C112.847 268.209 112.245 267.987 111.623 267.986C111 267.987 110.399 268.209 109.925 268.613C109.452 269.016 109.137 269.576 109.039 270.19C109.788 270.74 110.693 271.037 111.623 271.037Z" fill="black"/>
<path d="M111.623 270.112C114.469 270.112 116.777 267.804 116.777 264.957C116.777 262.11 114.469 259.803 111.623 259.803C108.776 259.803 106.468 262.11 106.468 264.957C106.468 267.804 108.776 270.112 111.623 270.112Z" fill="#444444"/>
<path d="M111.623 270.932C114.031 270.932 115.983 268.98 115.983 266.572C115.983 264.164 114.031 262.212 111.623 262.212C109.215 262.212 107.263 264.164 107.263 266.572C107.263 268.98 109.215 270.932 111.623 270.932Z" fill="#FDA57D"/>
<path opacity="0.05" d="M108.109 262.251L109.209 263.596C109.209 263.596 114.041 264.032 114.591 262.923C115.141 261.815 111.409 261.025 111.409 261.025L108.109 262.251Z" fill="black"/>
<path d="M108.109 262.129L109.209 263.473C109.209 263.473 114.041 263.91 114.591 262.801C115.141 261.693 111.409 260.903 111.409 260.903L108.109 262.129Z" fill="#444444"/>
<path d="M107.254 266.838C107.423 266.838 107.559 266.592 107.559 266.288C107.559 265.985 107.423 265.739 107.254 265.739C107.085 265.739 106.948 265.985 106.948 266.288C106.948 266.592 107.085 266.838 107.254 266.838Z" fill="#FDA57D"/>
<path d="M116 266.838C116.169 266.838 116.306 266.592 116.306 266.288C116.306 265.985 116.169 265.739 116 265.739C115.832 265.739 115.695 265.985 115.695 266.288C115.695 266.592 115.832 266.838 116 266.838Z" fill="#FDA57D"/>
<path d="M165.402 180.617H94.1166V183.716H165.402V180.617Z" fill="white"/>
<path d="M165.402 186.815H94.1166V189.914H165.402V186.815Z" fill="white"/>
<path d="M134.41 193.012H94.1166V196.111H134.41V193.012Z" fill="white"/>
<path d="M153.007 199.214H94.1166V202.313H153.007V199.214Z" fill="white"/>
<path d="M143.706 205.412H94.1166V208.511H143.706V205.412Z" fill="white"/>
<path d="M165.402 211.61H94.1166V214.708H165.402V211.61Z" fill="white"/>
<path d="M159.205 220.91H97.2155V245.705H159.205V220.91Z" fill="white"/>
<path d="M108.594 264.927C108.814 264.537 108.996 264.128 109.139 263.704C109.371 263.203 109.737 262.775 110.197 262.468C110.656 262.161 111.192 261.987 111.744 261.965C112.296 261.943 112.844 262.075 113.326 262.345C113.809 262.615 114.207 263.013 114.477 263.495C114.835 264.137 114.953 264.896 115.35 265.516C115.406 265.558 115.471 265.588 115.539 265.604C115.608 265.62 115.679 265.622 115.748 265.609C115.818 265.597 115.884 265.57 115.942 265.53C116 265.491 116.05 265.44 116.088 265.38C116.157 265.254 116.197 265.115 116.205 264.971C116.213 264.828 116.19 264.684 116.136 264.551C116.044 264.281 115.891 264.032 115.791 263.766C115.691 263.332 115.544 262.911 115.354 262.509C115.121 262.204 114.823 261.955 114.482 261.78C113.517 261.186 112.4 260.571 111.309 260.907C110.94 261.033 110.592 261.211 110.274 261.435L108.886 262.308C108.44 262.558 108.041 262.884 107.708 263.272C107.407 263.665 106.835 264.839 107.101 265.346C107.415 265.922 108.319 265.289 108.594 264.927Z" fill="#444444"/>
<path d="M110.527 274.092V291.432H113.089L112.71 274.092H110.527Z" fill="white"/>
<path d="M110.1 273.857L111.583 276.017L113.146 273.857H110.1Z" fill="#FDA57D"/>
</g>
<defs>
<linearGradient id="paint0_linear" x1="69.1515" y1="205.867" x2="69.1515" y2="86.7992" gradientUnits="userSpaceOnUse">
<stop stop-color="#808080" stop-opacity="0.25"/>
<stop offset="0.54" stop-color="#808080" stop-opacity="0.12"/>
<stop offset="1" stop-color="#808080" stop-opacity="0.1"/>
</linearGradient>
<linearGradient id="paint1_linear" x1="4388.3" y1="11862.3" x2="4388.3" y2="9986.34" gradientUnits="userSpaceOnUse">
<stop stop-color="#808080" stop-opacity="0.25"/>
<stop offset="0.54" stop-color="#808080" stop-opacity="0.12"/>
<stop offset="1" stop-color="#808080" stop-opacity="0.1"/>
</linearGradient>
<linearGradient id="paint2_linear" x1="5113.31" y1="12026" x2="5113.31" y2="10614.5" gradientUnits="userSpaceOnUse">
<stop stop-color="#808080" stop-opacity="0.25"/>
<stop offset="0.54" stop-color="#808080" stop-opacity="0.12"/>
<stop offset="1" stop-color="#808080" stop-opacity="0.1"/>
</linearGradient>
<linearGradient id="paint3_linear" x1="114033" y1="6084.05" x2="114033" y2="5903.75" gradientUnits="userSpaceOnUse">
<stop stop-color="#808080" stop-opacity="0.25"/>
<stop offset="0.54" stop-color="#808080" stop-opacity="0.12"/>
<stop offset="1" stop-color="#808080" stop-opacity="0.1"/>
</linearGradient>
<linearGradient id="paint4_linear" x1="191051" y1="97367.7" x2="191051" y2="33696.3" gradientUnits="userSpaceOnUse">
<stop stop-color="#808080" stop-opacity="0.25"/>
<stop offset="0.54" stop-color="#808080" stop-opacity="0.12"/>
<stop offset="1" stop-color="#808080" stop-opacity="0.1"/>
</linearGradient>
<linearGradient id="paint5_linear" x1="30926.2" y1="10375.3" x2="30926.2" y2="6653.82" gradientUnits="userSpaceOnUse">
<stop stop-color="#808080" stop-opacity="0.25"/>
<stop offset="0.54" stop-color="#808080" stop-opacity="0.12"/>
<stop offset="1" stop-color="#808080" stop-opacity="0.1"/>
</linearGradient>
<linearGradient id="paint6_linear" x1="20561.1" y1="9378.98" x2="21688.6" y2="9378.98" gradientUnits="userSpaceOnUse">
<stop stop-color="#808080" stop-opacity="0.25"/>
<stop offset="0.54" stop-color="#808080" stop-opacity="0.12"/>
<stop offset="1" stop-color="#808080" stop-opacity="0.1"/>
</linearGradient>
<linearGradient id="paint7_linear" x1="30946" y1="14887.9" x2="30946" y2="11166.4" gradientUnits="userSpaceOnUse">
<stop stop-color="#808080" stop-opacity="0.25"/>
<stop offset="0.54" stop-color="#808080" stop-opacity="0.12"/>
<stop offset="1" stop-color="#808080" stop-opacity="0.1"/>
</linearGradient>
<linearGradient id="paint8_linear" x1="22519" y1="16198.3" x2="22519" y2="13079.8" gradientUnits="userSpaceOnUse">
<stop stop-color="#808080" stop-opacity="0.25"/>
<stop offset="0.54" stop-color="#808080" stop-opacity="0.12"/>
<stop offset="1" stop-color="#808080" stop-opacity="0.1"/>
</linearGradient>
<linearGradient id="paint9_linear" x1="1150.22" y1="2300.12" x2="1150.22" y2="0" gradientUnits="userSpaceOnUse">
<stop stop-color="#808080" stop-opacity="0.25"/>
<stop offset="0.54" stop-color="#808080" stop-opacity="0.12"/>
<stop offset="1" stop-color="#808080" stop-opacity="0.1"/>
</linearGradient>
<linearGradient id="paint10_linear" x1="54088.6" y1="158698" x2="53975.6" y2="77765.3" gradientUnits="userSpaceOnUse">
<stop stop-color="#808080" stop-opacity="0.25"/>
<stop offset="0.54" stop-color="#808080" stop-opacity="0.12"/>
<stop offset="1" stop-color="#808080" stop-opacity="0.1"/>
</linearGradient>
<linearGradient id="paint11_linear" x1="132.657" y1="318.185" x2="132.436" y2="160.186" gradientUnits="userSpaceOnUse">
<stop stop-opacity="0.09"/>
<stop offset="0.55" stop-opacity="0.07"/>
<stop offset="1" stop-opacity="0.02"/>
</linearGradient>
<linearGradient id="paint12_linear" x1="13421.6" y1="27423.1" x2="13421.6" y2="23701.6" gradientUnits="userSpaceOnUse">
<stop stop-color="#808080" stop-opacity="0.25"/>
<stop offset="0.54" stop-color="#808080" stop-opacity="0.12"/>
<stop offset="1" stop-color="#808080" stop-opacity="0.1"/>
</linearGradient>
<linearGradient id="paint13_linear" x1="10406.6" y1="23315.5" x2="11535.1" y2="23315.5" gradientUnits="userSpaceOnUse">
<stop stop-color="#808080" stop-opacity="0.25"/>
<stop offset="0.54" stop-color="#808080" stop-opacity="0.12"/>
<stop offset="1" stop-color="#808080" stop-opacity="0.1"/>
</linearGradient>
<linearGradient id="paint14_linear" x1="9927.94" y1="27382.4" x2="9927.94" y2="23660.9" gradientUnits="userSpaceOnUse">
<stop stop-color="#808080" stop-opacity="0.25"/>
<stop offset="0.54" stop-color="#808080" stop-opacity="0.12"/>
<stop offset="1" stop-color="#808080" stop-opacity="0.1"/>
</linearGradient>
<linearGradient id="paint15_linear" x1="8369.87" y1="23282.2" x2="9498.41" y2="23282.2" gradientUnits="userSpaceOnUse">
<stop stop-color="#808080" stop-opacity="0.25"/>
<stop offset="0.54" stop-color="#808080" stop-opacity="0.12"/>
<stop offset="1" stop-color="#808080" stop-opacity="0.1"/>
</linearGradient>
<clipPath id="clip0">
<rect width="400" height="332.577" fill="white"/>
</clipPath>
</defs>
</svg>
