<svg width="450" height="234" viewBox="0 0 450 234" fill="none" xmlns="http://www.w3.org/2000/svg">
<g clip-path="url(#clip0)">
<path d="M196.414 2.72216L160.184 130.84L387.302 195.065L423.531 66.9475L196.414 2.72216Z" fill="#3F3D56"/>
<path d="M200.337 9.96157C201.376 9.96157 202.218 9.11942 202.218 8.08058C202.218 7.04173 201.376 6.19958 200.337 6.19958C199.298 6.19958 198.456 7.04173 198.456 8.08058C198.456 9.11942 199.298 9.96157 200.337 9.96157Z" fill="#F9A826"/>
<path d="M206.129 11.5995C207.168 11.5995 208.01 10.7574 208.01 9.71852C208.01 8.67967 207.168 7.83752 206.129 7.83752C205.091 7.83752 204.248 8.67967 204.248 9.71852C204.248 10.7574 205.091 11.5995 206.129 11.5995Z" fill="#F9A826"/>
<path d="M211.921 13.2375C212.96 13.2375 213.802 12.3953 213.802 11.3565C213.802 10.3176 212.96 9.47546 211.921 9.47546C210.883 9.47546 210.04 10.3176 210.04 11.3565C210.04 12.3953 210.883 13.2375 211.921 13.2375Z" fill="#F9A826"/>
<path d="M316.948 84.0173C313.907 83.4425 310.78 83.5163 307.77 84.2339C308.646 81.2245 308.868 78.0623 308.419 74.9602C305.319 76.0822 302.514 77.8922 300.215 80.2543C299.493 77.0379 298.052 74.027 295.999 71.448C293.992 73.8557 292.524 76.6654 291.695 79.6881C289.506 77.5005 286.881 75.7998 283.99 74.6972C283.99 74.6972 282.62 81.664 285.918 87.3807C288.853 92.4687 294.493 94.8498 295.698 95.3123L295.726 95.3461L295.742 95.3289C295.864 95.3754 295.932 95.399 295.932 95.399C295.932 95.399 295.958 95.2652 295.994 95.0264C296.016 94.9996 296.038 94.9724 296.062 94.9423C296.066 94.9805 296.071 95.0151 296.075 95.0493C295.98 95.2714 295.932 95.399 295.932 95.399C295.932 95.399 296.003 95.4147 296.132 95.4393L296.136 95.4619L296.177 95.4478C297.447 95.6852 303.498 96.6101 308.663 93.8127C314.466 90.6698 316.948 84.0173 316.948 84.0173Z" fill="#F9A826"/>
<path d="M305.692 66.2211C308.393 66.2211 310.583 64.0315 310.583 61.3305C310.583 58.6295 308.393 56.4399 305.692 56.4399C302.991 56.4399 300.801 58.6295 300.801 61.3305C300.801 64.0315 302.991 66.2211 305.692 66.2211Z" fill="#F9A826"/>
<path d="M367.099 124.828L220.126 83.2659L219.222 86.4635L366.195 128.025L367.099 124.828Z" fill="#F9A826"/>
<path d="M254.718 110.25L229.378 103.084L222.212 128.424L247.552 135.59L254.718 110.25Z" fill="#F9A826"/>
<path d="M301.778 123.558L276.438 116.392L269.272 141.732L294.613 148.898L301.778 123.558Z" fill="#F9A826"/>
<path d="M348.839 136.866L323.499 129.7L316.333 155.04L341.673 162.206L348.839 136.866Z" fill="#F9A826"/>
<path d="M242.861 139.737L224.037 134.414L223.423 136.586L242.247 141.909L242.861 139.737Z" fill="#F9A826"/>
<path d="M289.921 153.045L271.097 147.722L270.483 149.894L289.307 155.217L289.921 153.045Z" fill="#F9A826"/>
<path d="M336.982 166.353L318.158 161.03L317.543 163.202L336.368 168.525L336.982 166.353Z" fill="#F9A826"/>
<path d="M128.378 180.421C197.908 180.421 254.274 178.337 254.274 175.766C254.274 173.195 197.908 171.111 128.378 171.111C58.8479 171.111 2.48254 173.195 2.48254 175.766C2.48254 178.337 58.8479 180.421 128.378 180.421Z" fill="#D0CDE1"/>
<path d="M352.032 233.173C406.138 233.173 450 231.089 450 228.518C450 225.947 406.138 223.863 352.032 223.863C297.926 223.863 254.064 225.947 254.064 228.518C254.064 231.089 297.926 233.173 352.032 233.173Z" fill="#D0CDE1"/>
<path d="M303.983 192.39H332.246V204.209H315.802V216.029H332.248V227.848H303.983V192.39ZM337.9 192.39H366.164V202.668H349.719V204.723H366.164V228.363H337.9V217.569H354.345V215.514H337.899V192.39H337.9ZM371.817 192.39H400.081V202.668H383.637V204.723H400.081V228.363H371.817V217.569H388.262V215.514H371.818V192.39H371.817Z" fill="#3F3D56"/>
<path d="M56.9588 138.308H68.6185V149.827H79.2846V138.308H90.9449V173.192H79.2853V161.511H68.6192V173.192H56.9595V138.308H56.9588ZM106.277 149.876H96.014V138.308H128.208V149.876H117.939V173.192H106.279V149.876H106.277ZM133.318 138.308H145.475L152.954 150.565L160.425 138.308H172.588V173.192H160.975V155.901L152.954 168.305H152.752L144.726 155.901V173.192H133.318V138.308ZM178.39 138.308H190.053V161.661H206.45V173.192H178.389V138.308H178.39Z" fill="#3F3D56"/>
<path d="M36.3652 162.286L35.4086 173.132L43.0643 172.494V163.243L36.3652 162.286Z" fill="#FFB8B8"/>
<path d="M29.3474 162.286L30.3044 173.132L22.6487 172.494V163.243L29.3474 162.286Z" fill="#FFB8B8"/>
<path d="M49.4441 79.0286C49.4441 79.0286 51.9961 94.3403 51.9961 96.5733C51.9961 98.8062 51.0391 113.161 49.4441 116.032C47.8491 118.903 47.5301 120.179 48.1681 121.455C48.8061 122.731 48.4871 122.412 48.1681 123.369C47.8491 124.326 47.2111 124.007 48.1681 125.283C48.5589 125.844 48.7684 126.512 48.7684 127.197C48.7684 127.881 48.5589 128.549 48.1681 129.111C47.5301 130.068 49.4441 155.906 46.8921 157.82C44.3402 159.734 43.7022 166.114 43.7022 166.114L35.4084 165.157V158.139C35.4084 158.139 33.4944 153.035 34.7704 149.845C36.0463 146.655 36.6843 129.749 36.6843 129.749C36.6843 129.749 36.3653 128.154 36.6843 127.197C37.0033 126.24 36.6843 125.602 36.0463 125.283C35.4084 124.964 35.0894 123.688 35.0894 123.688L34.1324 100.401L30.3044 123.369C30.3044 123.369 34.1324 154.63 30.3044 158.777V166.114H22.0106L23.2866 158.139C23.2866 158.139 20.7346 150.802 22.0106 149.207C23.2866 147.612 18.1827 122.093 18.8207 121.136C19.4586 120.179 19.1397 119.86 18.8207 119.222C18.5017 118.584 17.5447 117.946 17.8637 117.308C18.1827 116.67 17.8637 115.394 17.8637 115.394C17.8637 115.394 11.8028 85.4084 14.6737 82.5375C17.5447 79.6665 49.4441 79.0286 49.4441 79.0286Z" fill="#2F2E41"/>
<path d="M37.3223 168.985C37.3223 168.985 37.9603 165.926 43.0642 166.977C43.0642 166.977 44.3402 169.623 44.3402 170.899C44.3402 172.175 45.6161 180.788 45.6161 180.788C45.6161 180.788 50.7201 189.401 44.3402 189.401C37.9603 189.401 35.7273 187.168 35.4083 184.935C35.0893 182.702 35.7273 182.064 34.4513 181.107C33.1754 180.15 32.5374 180.15 32.8564 178.874C33.1754 177.598 33.8134 171.218 33.8134 171.218C33.8134 171.218 34.1324 166.433 35.8868 167.709L37.6413 168.985" fill="#2F2E41"/>
<path d="M28.3905 168.985C28.3905 168.985 27.7525 165.926 22.6486 166.977C22.6486 166.977 21.3726 169.623 21.3726 170.899C21.3726 172.175 20.0967 180.788 20.0967 180.788C20.0967 180.788 14.9928 189.401 21.3726 189.401C27.7525 189.401 29.9855 187.168 30.3045 184.935C30.6235 182.702 29.9855 182.064 31.2615 181.107C32.5374 180.15 33.1754 180.15 32.8564 178.874C32.5374 177.598 31.8994 171.218 31.8994 171.218C31.8994 171.218 31.5804 166.433 29.826 167.709L28.0715 168.985" fill="#2F2E41"/>
<path d="M37.6413 20.3336C42.3981 20.3336 46.2542 16.4775 46.2542 11.7208C46.2542 6.96401 42.3981 3.10791 37.6413 3.10791C32.8846 3.10791 29.0285 6.96401 29.0285 11.7208C29.0285 16.4775 32.8846 20.3336 37.6413 20.3336Z" fill="#FFB8B8"/>
<path d="M30.6234 12.9967C30.6234 12.9967 27.1145 26.7135 26.4765 27.0324C25.8385 27.3514 41.1502 28.6274 41.1502 28.6274C41.1502 28.6274 37.3223 16.8246 41.1502 14.9107L30.6234 12.9967Z" fill="#FFB8B8"/>
<path d="M28.3825 21.3557L28.3821 21.3539L17.8637 28.6275L19.7777 85.7274C19.7777 85.7274 33.8134 84.1325 37.0034 84.4515C40.1933 84.7705 50.4011 81.5805 50.4011 81.5805L45.9299 27.9261C45.8426 26.8777 45.383 25.8951 44.6344 25.1559C43.8858 24.4168 42.8974 23.9698 41.848 23.8958L39.9322 23.7607C39.9322 23.7607 38.0183 28.4992 32.2602 26.0546C31.2893 25.6323 30.432 24.9865 29.7581 24.1699C29.0843 23.3533 28.6129 22.389 28.3825 21.3557Z" fill="#D0CDE1"/>
<path d="M28.6369 20.8348L15.6308 27.0325L13.0788 63.7168C13.0788 63.7168 7.97489 85.7274 12.1218 92.1073C16.2687 98.4872 23.2866 99.1252 23.2866 99.1252C23.2866 99.1252 32.5375 62.4409 29.9855 50.0001C27.4335 37.5593 28.6369 20.8348 28.6369 20.8348Z" fill="#575A89"/>
<path d="M4.14696 76.1576V80.9425C4.14696 80.9425 2.233 91.4693 8.29389 91.1503C14.3548 90.8313 11.4838 79.6665 11.4838 79.6665L9.56986 76.1576H4.14696Z" fill="#FFB8B8"/>
<path d="M60.2899 85.7273L59.6519 91.1502C59.6519 91.1502 62.8419 101.996 56.781 102.315C50.7201 102.634 55.1195 91.2168 55.1195 91.2168L57.1 85.0894L60.2899 85.7273Z" fill="#FFB8B8"/>
<path d="M39.7402 22.6459C45.5526 24.0775 50.9387 26.8774 55.4499 30.8123L55.505 30.8604L51.0391 54.466L50.4011 63.0788C50.4011 63.0788 62.2039 105.186 48.4871 99.1252C48.4871 99.1252 36.6844 62.4408 38.2793 45.5342C39.8743 28.6275 39.7402 22.6459 39.7402 22.6459Z" fill="#575A89"/>
<path d="M51.3581 30.5414C51.6771 30.2224 55.505 30.9847 55.505 30.9847C55.505 30.9847 62.5229 55.7419 62.5229 59.8889C62.5229 64.0358 63.4798 87.6414 63.4798 87.6414L55.0594 88.4902L48.2437 55.6924L51.3581 30.5414Z" fill="#575A89"/>
<path d="M17.8637 27.0325H15.6307C15.6307 27.0325 9.25083 29.5844 8.93184 32.4554C8.61285 35.3263 0 64.3548 0 64.3548L2.23296 79.0285L10.5268 77.7526L12.1218 61.4839L20.4156 43.6202L17.8637 27.0325Z" fill="#575A89"/>
<path d="M35.968 14.1245L36.2983 11.8225C36.3752 11.286 36.6892 10.5805 37.2113 10.7264C37.6553 10.8506 38.6226 11.2306 38.7846 11.1159C39.3911 10.6862 40.3089 11.4375 40.9467 11.0558C41.2139 10.8959 41.3882 10.5533 41.6988 10.5305C41.9072 10.5438 42.1035 10.6327 42.2509 10.7806C42.6649 11.1406 43.1528 11.4056 43.6802 11.557C43.9447 11.6291 44.2238 11.629 44.4883 11.5569C44.7529 11.4848 44.9934 11.3432 45.1848 11.1469C45.2524 11.0423 45.3435 10.955 45.4509 10.8918C45.5769 10.8555 45.7113 10.8617 45.8335 10.9094L47.4631 11.3531C47.7027 10.4841 47.752 9.57363 47.6074 8.68387C47.4628 7.79411 47.1278 6.94606 46.6253 6.19767C45.9642 5.30032 45.1628 4.51542 44.2518 3.87319C43.2426 3.10544 42.2011 2.38331 41.1274 1.70681C39.989 0.901361 38.6968 0.339187 37.3314 0.0553708C35.9572 -0.15331 34.4185 0.220039 33.5541 1.30856C33.1475 1.0143 32.8419 0.601461 32.6792 0.126665C32.5823 0.214845 32.5059 0.323229 32.4554 0.444159C32.405 0.565089 32.3817 0.695618 32.3872 0.826536C32.3927 0.957454 32.4269 1.08557 32.4873 1.20183C32.5478 1.31809 32.633 1.41968 32.737 1.4994L31.3588 0.61931C30.9713 1.02611 31.7283 1.76376 31.3982 2.21832C31.2983 2.33074 31.1702 2.41439 31.0271 2.46057C30.2788 2.75224 29.593 3.18393 29.0063 3.73249C28.2636 4.57867 27.7198 5.58044 27.4148 6.66425C26.5935 9.02033 25.9967 11.7223 27.1635 13.9278C27.2958 14.1778 29.0419 18.3046 29.2745 18.4656C30.0609 19.0096 29.549 17.693 30.1125 18.4656C30.5544 19.0714 30.4717 16.7528 31.1284 17.2617C31.3858 17.4459 31.6912 17.5515 32.0075 17.5658C32.3237 17.58 32.6373 17.5022 32.9103 17.3418C33.1825 17.153 33.0948 16.1045 32.9479 15.1416C32.9198 14.9582 32.9371 14.7707 32.9984 14.5956C33.0596 14.4204 33.1628 14.263 33.299 14.137C33.4353 14.011 33.6003 13.9204 33.7797 13.8731C33.9591 13.8257 34.1474 13.8231 34.328 13.8654C35.1459 14.0578 35.954 14.2222 35.968 14.1245Z" fill="#2F2E41"/>
<path opacity="0.2" d="M52.1558 59.4103L55.6644 88.4389H53.4316L52.1558 59.4103Z" fill="black"/>
<path opacity="0.2" d="M15.1522 48.2455L13.3782 59.4103L16.7472 48.2455H15.7901H15.1522Z" fill="black"/>
</g>
<defs>
<clipPath id="clip0">
<rect width="450" height="233.173" fill="white"/>
</clipPath>
</defs>
</svg>
